<svg width="44" height="44" viewBox="0 0 44 44" fill="none" xmlns="http://www.w3.org/2000/svg">
<path fill-rule="evenodd" clip-rule="evenodd" d="M22 42C33.0457 42 42 33.0457 42 22C42 10.9543 33.0457 2 22 2C10.9543 2 2 10.9543 2 22C2 33.0457 10.9543 42 22 42ZM22 44C34.1503 44 44 34.1503 44 22C44 9.84974 34.1503 0 22 0C9.84974 0 0 9.84974 0 22C0 34.1503 9.84974 44 22 44ZM29.1945 22.9565H8.6087V20.9565H29.1075L20.3364 12.1854L21.7506 10.7712L32.2723 21.2929L32.9794 22L32.2723 22.7071L21.7506 33.2288L20.3364 31.8146L29.1945 22.9565Z" fill="white"/>
</svg>
