<svg width="44" height="44" viewBox="0 0 44 44" fill="none" xmlns="http://www.w3.org/2000/svg">
<mask id="path-1-inside-1_1430_97610" fill="white">
<path fill-rule="evenodd" clip-rule="evenodd" d="M22 44C34.1503 44 44 34.1503 44 22C44 9.84974 34.1503 0 22 0C9.84974 0 0 9.84974 0 22C0 34.1503 9.84974 44 22 44ZM8.6087 22.9565H29.1945L20.3364 31.8146L21.7506 33.2288L32.2723 22.7071L32.9794 22L32.2723 21.2929L21.7506 10.7712L20.3364 12.1854L29.1075 20.9565H8.6087V22.9565Z"/>
</mask>
<path fill-rule="evenodd" clip-rule="evenodd" d="M22 44C34.1503 44 44 34.1503 44 22C44 9.84974 34.1503 0 22 0C9.84974 0 0 9.84974 0 22C0 34.1503 9.84974 44 22 44ZM8.6087 22.9565H29.1945L20.3364 31.8146L21.7506 33.2288L32.2723 22.7071L32.9794 22L32.2723 21.2929L21.7506 10.7712L20.3364 12.1854L29.1075 20.9565H8.6087V22.9565Z" fill="white"/>
<path d="M29.1945 22.9565L30.6087 24.3707L34.0229 20.9565H29.1945V22.9565ZM8.6087 22.9565H6.6087V24.9565H8.6087V22.9565ZM20.3364 31.8146L18.9222 30.4004L17.5079 31.8146L18.9222 33.2288L20.3364 31.8146ZM21.7506 33.2288L20.3364 34.6431L21.7506 36.0573L23.1648 34.6431L21.7506 33.2288ZM32.2723 22.7071L33.6865 24.1213L32.2723 22.7071ZM32.9794 22L34.3936 23.4142L35.8079 22L34.3936 20.5858L32.9794 22ZM32.2723 21.2929L33.6865 19.8787L32.2723 21.2929ZM21.7506 10.7712L23.1648 9.35694L21.7506 7.94273L20.3364 9.35694L21.7506 10.7712ZM20.3364 12.1854L18.9222 10.7712L17.5079 12.1854L18.9222 13.5996L20.3364 12.1854ZM29.1075 20.9565V22.9565H33.936L30.5217 19.5423L29.1075 20.9565ZM8.6087 20.9565V18.9565H6.6087V20.9565H8.6087ZM42 22C42 33.0457 33.0457 42 22 42V46C35.2548 46 46 35.2548 46 22H42ZM22 2C33.0457 2 42 10.9543 42 22H46C46 8.74517 35.2548 -2 22 -2V2ZM2 22C2 10.9543 10.9543 2 22 2V-2C8.74517 -2 -2 8.74517 -2 22H2ZM22 42C10.9543 42 2 33.0457 2 22H-2C-2 35.2548 8.74517 46 22 46V42ZM29.1945 20.9565H8.6087V24.9565H29.1945V20.9565ZM21.7506 33.2288L30.6087 24.3707L27.7803 21.5423L18.9222 30.4004L21.7506 33.2288ZM23.1648 31.8146L21.7506 30.4004L18.9222 33.2288L20.3364 34.6431L23.1648 31.8146ZM30.8581 21.2929L20.3364 31.8146L23.1648 34.6431L33.6865 24.1213L30.8581 21.2929ZM31.5652 20.5858L30.8581 21.2929L33.6865 24.1213L34.3936 23.4142L31.5652 20.5858ZM30.8581 22.7071L31.5652 23.4142L34.3936 20.5858L33.6865 19.8787L30.8581 22.7071ZM20.3364 12.1854L30.8581 22.7071L33.6865 19.8787L23.1648 9.35694L20.3364 12.1854ZM21.7506 13.5996L23.1648 12.1854L20.3364 9.35694L18.9222 10.7712L21.7506 13.5996ZM30.5217 19.5423L21.7506 10.7712L18.9222 13.5996L27.6933 22.3707L30.5217 19.5423ZM8.6087 22.9565H29.1075V18.9565H8.6087V22.9565ZM10.6087 22.9565V20.9565H6.6087V22.9565H10.6087Z" fill="white" mask="url(#path-1-inside-1_1430_97610)"/>
</svg>
