<svg width="40" height="40" viewBox="0 0 40 40" fill="none" xmlns="http://www.w3.org/2000/svg"><path fill-rule="evenodd" clip-rule="evenodd" d="M27.274 26.942a11.714 11.714 0 01-8.145 3.273c-6.464 0-11.703-5.197-11.703-11.607C7.426 12.197 12.666 7 19.129 7c6.463 0 11.703 5.197 11.703 11.608a11.5 11.5 0 01-2.24 6.831l6.505 6.184L33.647 33l-6.373-6.058zm1.558-8.334c0 5.29-4.329 9.607-9.703 9.607-5.375 0-9.703-4.317-9.703-9.607C9.426 13.317 13.755 9 19.129 9s9.703 4.317 9.703 9.608z" fill="#fff"/></svg> 9.42578 23.8982 9.42578 18.6075C9.42578 13.3168 13.7545 9 19.1287 9C24.503 9 28.8317 13.3168 28.8317 18.6075Z" fill="white"/>
</svg>
