<svg width="14" height="14" viewBox="0 0 14 14" fill="none" xmlns="http://www.w3.org/2000/svg">
<path d="M1 5.94118L7 1L13 5.94118L13 13H9.25V10.1765C9.25 9.61484 9.01295 9.0762 8.59099 8.67907C8.16903 8.28193 7.59674 8.05882 7 8.05882C6.40326 8.05882 5.83097 8.28193 5.40901 8.67907C4.98706 9.0762 4.75 9.61483 4.75 10.1765V13H1L1 5.94118Z" fill="#004ABA"/>
<path d="M1 5.94118L7 1L13 5.94118L13 13H9.25V10.1765C9.25 9.61484 9.01295 9.0762 8.59099 8.67907C8.16903 8.28193 7.59674 8.05882 7 8.05882C6.40326 8.05882 5.83097 8.28193 5.40901 8.67907C4.98706 9.0762 4.75 9.61483 4.75 10.1765V13H1L1 5.94118Z" stroke="#004ABA" stroke-linecap="round" stroke-linejoin="round"/>
</svg>
