<svg width="12" height="12" viewBox="0 0 12 12" fill="none" xmlns="http://www.w3.org/2000/svg"><mask id="path-1-inside-1_2_8029" fill="#fff"><path d="M0 4.941L6 0l6 4.941V12H8.25V9.176c0-.561-.237-1.1-.659-1.497A2.323 2.323 0 006 7.06c-.597 0-1.169.223-1.591.62a2.056 2.056 0 00-.659 1.497V12H0V4.941z"/></mask><path d="M6 0l.636-.772a1 1 0 00-1.272 0L6 0zM0 4.941l-.636-.772A1 1 0 00-1 4.941h1zm12 0h1a1 1 0 00-.364-.772L12 4.941zM12 12v1a1 1 0 001-1h-1zm-3.75 0h-1a1 1 0 001 1v-1zm-.659-4.32l.685-.73-.685.73zM3.75 12v1a1 1 0 001-1h-1zM0 12h-1a1 1 0 001 1v-1zM5.364-.772l-6 4.941L.636 5.713l6-4.941L5.364-.772zm7.272 4.941l-6-4.94L5.364.771l6 4.941 1.272-1.544zM11 4.941V12h2V4.941h-2zM12 11H8.25v2H12v-2zm-2.75 1V9.176h-2V12h2zm0-2.824c0-.847-.358-1.646-.974-2.225l-1.37 1.456c.228.215.344.493.344.77h2zm-.974-2.225A3.323 3.323 0 006 6.059v2c.35 0 .675.131.906.348l1.37-1.456zM6 6.059c-.843 0-1.663.314-2.276.892l1.37 1.456c.23-.217.556-.348.906-.348v-2zm-2.276.892a3.056 3.056 0 00-.974 2.225h2c0-.276.116-.554.344-.769l-1.37-1.456zM2.75 9.176V12h2V9.176h-2zm1 1.824H0v2h3.75v-2zM1 12V4.941h-2V12h2z" fill="#104CA6" mask="url(#path-1-inside-1_2_8029)"/></svg>3 4.94118L11 4.94118ZM12 11H8.25V13H12V11ZM9.25 12V9.17647H7.25V12H9.25ZM9.25 9.17647C9.25 8.32938 8.89191 7.53021 8.27636 6.95087L6.90563 8.40727C7.13399 8.6222 7.25 8.90029 7.25 9.17647H9.25ZM8.27636 6.95087C7.66286 6.37346 6.84305 6.05882 6 6.05882V8.05882C6.35043 8.05882 6.67521 8.19041 6.90563 8.40727L8.27636 6.95087ZM6 6.05882C5.15695 6.05882 4.33714 6.37346 3.72365 6.95087L5.09438 8.40727C5.32479 8.19041 5.64958 8.05882 6 8.05882V6.05882ZM3.72365 6.95087C3.10809 7.53021 2.75 8.32938 2.75 9.17647H4.75C4.75 8.90029 4.86602 8.6222 5.09438 8.40727L3.72365 6.95087ZM2.75 9.17647V12H4.75V9.17647H2.75ZM3.75 11H3.25731e-06V13H3.75V11ZM1 12L1 4.94118L-1 4.94118L-0.999997 12L1 12Z" fill="#104CA6" mask="url(#path-1-inside-1_2_8029)"/>
</svg>
