<svg id="students_01" xmlns="http://www.w3.org/2000/svg" viewBox="0 0 84 84"><defs><style>.cls-1{fill:#0047c0;}</style></defs><title>icons_84x84px</title><path class="cls-1" d="M74.5,5.5h-52v4h-5v4h-7v66h54v-5h5v-4h5Zm-11,73h-52v-64H52V26H63.5Zm5-5h-4V25h0a.45.45,0,0,0-.13-.35l-11-11a.45.45,0,0,0-.35-.13v0H18.5v-3h50Zm5-4h-4V9.5h-46v-3h50Z"/><rect class="cls-1" x="41.5" y="37" width="14" height="1"/><rect class="cls-1" x="41.5" y="33" width="14" height="1"/><rect class="cls-1" x="17" y="64.13" width="40" height="1"/><rect class="cls-1" x="17" y="58.75" width="40" height="1"/><rect class="cls-1" x="17" y="53.13" width="40" height="1"/><rect class="cls-1" x="17" y="47.75" width="40" height="1"/><rect class="cls-1" x="17" y="69.5" width="40" height="1"/><rect class="cls-1" x="41.5" y="29" width="8" height="1"/><rect class="cls-1" x="17" y="37" width="14" height="1"/><rect class="cls-1" x="17" y="33" width="14" height="1"/><rect class="cls-1" x="17" y="29" width="8" height="1"/></svg>