<svg id="students_01" xmlns="http://www.w3.org/2000/svg" viewBox="0 0 84 84"><defs><style>.cls-1{fill:#0047c0;}</style></defs><title>icons_84x84px</title><rect class="cls-1" x="22.72" y="33.41" width="38.27" height="1"/><rect class="cls-1" x="22.72" y="38.02" width="38.27" height="1"/><rect class="cls-1" x="22.72" y="28.8" width="21.87" height="1"/><polygon class="cls-1" points="52.35 60 55.85 60 55.85 63 27.85 63 27.85 60 31.35 60 31.35 59 23.35 59 23.35 60 26.85 60 26.85 64 56.85 64 56.85 60 60.35 60 60.35 59 52.35 59 52.35 60"/><path class="cls-1" d="M76.32,44.32,70,28.4V21.32H66.4V14.41H61.23V7.5H22.48v6.91H17.3v6.91H14v7.09L7.39,44.31a.41.41,0,0,0,0,.19V76h69V44.5A.52.52,0,0,0,76.32,44.32ZM23.48,8.5H60.23v5.91H23.48ZM18.3,15.41H65.4v5.91H18.3ZM69,22.32V45H56.1v5h-29V45H15c0-2.75,0-16.13,0-16.51h0s0,0,0,0V22.32ZM75.35,75h-67V46H26.1v5h31V46H75.35Z"/></svg>