<svg id="students_01" xmlns="http://www.w3.org/2000/svg" viewBox="0 0 84 84"><defs><style>.cls-1{fill:#0047c0;}</style></defs><title>icons_84x84px</title><rect class="cls-1" x="35" y="19.38" width="15.44" height="1"/><rect class="cls-1" x="12" y="51.13" width="26" height="1"/><rect class="cls-1" x="12" y="45.75" width="9.5" height="1"/><rect class="cls-1" x="12" y="56.5" width="26" height="1"/><path class="cls-1" d="M78.26,27.75A12,12,0,0,0,74.5,19V10h-47V33H5.5V65.46h7.56v10l17.2-10H45.65V46.85h4.09l17.2,10v-10H74.5V36.46A12,12,0,0,0,78.26,27.75ZM44.65,64.46H30L14.06,73.71V64.46H6.5V34h21V46.85H44.65ZM73.5,45.85H65.94V55.1L50,45.85H28.48V11h45v7.2a12,12,0,0,0-18.85,6.55H35v1H54.44a12,12,0,0,0-.18,2,11.55,11.55,0,0,0,.24,2.37H35v1H54.75a12,12,0,0,0,2.36,4.38H35v1H58.06a11.95,11.95,0,0,0,15.44.8ZM66.87,29.6v.86a.18.18,0,0,1-.2.2H65.19c-.13,0-.19-.07-.19-.2v-1a2.22,2.22,0,0,1,.44-1.43,7,7,0,0,1,1.29-1.19,7.51,7.51,0,0,0,1.2-1.08,1.84,1.84,0,0,0,.4-1.23,1.76,1.76,0,0,0-.57-1.38,2.44,2.44,0,0,0-3,0,1.78,1.78,0,0,0-.58,1.39v.51a.18.18,0,0,1-.2.19l-1.46-.08a.17.17,0,0,1-.19-.19V24.6a3.44,3.44,0,0,1,.5-1.87,3.37,3.37,0,0,1,1.41-1.28,4.73,4.73,0,0,1,2.1-.45,4,4,0,0,1,2.81,1,3.29,3.29,0,0,1,1.06,2.55A3.46,3.46,0,0,1,69.91,26a3.33,3.33,0,0,1-.69,1,9.33,9.33,0,0,1-1,.86,7.63,7.63,0,0,0-1,.87A1.31,1.31,0,0,0,66.87,29.6Zm.25,3.81a1.2,1.2,0,0,1-1.24,1.24A1.19,1.19,0,0,1,65,34.3a1.21,1.21,0,0,1-.35-.89,1.2,1.2,0,0,1,1.23-1.23,1.21,1.21,0,0,1,.89.35A1.19,1.19,0,0,1,67.12,33.41Z"/></svg>