<svg width="24" height="24" viewBox="0 0 24 24" fill="none" xmlns="http://www.w3.org/2000/svg"><path fill-rule="evenodd" clip-rule="evenodd" d="M12 24c6.627 0 12-5.373 12-12S18.627 0 12 0 0 5.373 0 12s5.373 12 12 12zm-.125-15.335a584.13 584.13 0 00-6.98 3.07c-.567.23-.864.456-.891.676-.046.372.41.518 1.032.718l.262.085c.61.202 1.433.44 1.86.45.388.008.82-.155 1.298-.49 3.26-2.248 4.944-3.383 5.05-3.408.074-.017.178-.039.248.025.07.063.063.183.055.216-.045.196-1.836 1.896-2.762 2.776-.29.274-.494.469-.536.513-.094.1-.19.194-.282.284-.567.56-.993.978.024 1.663.489.329.88.6 1.27.872.426.296.851.592 1.401.96.14.094.274.191.405.286.496.361.941.685 1.492.634.32-.03.65-.338.818-1.254.396-2.164 1.176-6.854 1.356-8.787a2.202 2.202 0 00-.02-.48.52.52 0 00-.17-.332c-.144-.119-.365-.144-.464-.142-.45.008-1.141.253-4.466 1.665z" fill="#fff"/></svg> 14.1392 9.2358 14.5583 10.253 15.2427C10.7418 15.5716 11.133 15.8436 11.5232 16.1149C11.9494 16.4112 12.3744 16.7068 12.9244 17.0749C13.0645 17.1687 13.1984 17.2661 13.3287 17.361C13.8247 17.722 14.2702 18.0463 14.8207 17.9946C15.1406 17.9645 15.471 17.6574 15.6388 16.7415C16.0354 14.577 16.8149 9.887 16.995 7.95438C17.0108 7.78505 16.9909 7.56835 16.975 7.47323C16.959 7.3781 16.9257 7.24257 16.8046 7.14223C16.6612 7.02341 16.4398 6.99835 16.3408 7.00013C15.8905 7.00823 15.1998 7.25347 11.8754 8.66526Z" fill="white"/>
</svg>
