<svg id="students_01" xmlns="http://www.w3.org/2000/svg" viewBox="0 0 84 84"><defs><style>.cls-1{fill:#0047c0;}</style></defs><title>icons_84x84px</title><rect class="cls-1" x="39.56" y="31.1" width="14.94" height="1"/><rect class="cls-1" x="39.56" y="26.83" width="14.94" height="1"/><rect class="cls-1" x="13.4" y="54.32" width="27.6" height="1"/><rect class="cls-1" x="39.56" y="22.56" width="8.54" height="1"/><path class="cls-1" d="M36.32,13.49H12.9V39H36.32ZM32.5,38h-16V35.8c0-3.1,3.59-5.62,8-5.62s8,2.52,8,5.62Zm2.82,0H33.5V35.8c0-3.65-4-6.62-9-6.62s-9,3-9,6.62V38H13.9V14.49H35.32Z"/><rect class="cls-1" x="12.9" y="42.49" width="23.42" height="6.51"/><path class="cls-1" d="M44.8,54.09A13.3,13.3,0,1,0,58.09,40.8,13.29,13.29,0,0,0,44.8,54.09Zm25.59,0A12.3,12.3,0,1,1,58.09,41.8,12.32,12.32,0,0,1,70.39,54.09Z"/><path class="cls-1" d="M78.61,71,71.86,64.2A17.06,17.06,0,0,0,65,38.46V7H7V77H65V69.72a16.26,16.26,0,0,0,2.46-1.34l6.86,6.87A3,3,0,0,0,78.61,71ZM74.19,54.09A16.1,16.1,0,1,1,58.09,38,16.12,16.12,0,0,1,74.19,54.09ZM64,76H8V8H64V38.07a17.05,17.05,0,0,0-21.91,22H13.4v1H42.49a17.15,17.15,0,0,0,3.16,4.74H13.4v1H46.68A17,17,0,0,0,64,70.12Zm13.9-1.46a2,2,0,0,1-2.87,0l-6.74-6.75a17.33,17.33,0,0,0,3-2.78l6.65,6.65A2,2,0,0,1,77.9,74.54Z"/><path class="cls-1" d="M24.16,28.14a4.92,4.92,0,1,0-4.92-4.92A4.93,4.93,0,0,0,24.16,28.14Zm0-8.84a3.92,3.92,0,1,1-3.92,3.92A3.93,3.93,0,0,1,24.16,19.3Z"/></svg>