<svg id="students_01" xmlns="http://www.w3.org/2000/svg" viewBox="0 0 84 84"><defs><style>.cls-1{fill:#0047c0;}</style></defs><title>icons_84x84px</title><path class="cls-1" d="M45.54,24.53H32.48v5H45.54Zm-1,4H33.48v-3H44.54Z"/><path class="cls-1" d="M45.54,34.44H32.48v5H45.54Zm-1,4H33.48v-3H44.54Z"/><path class="cls-1" d="M15.77,29.49H28.84v-5H15.77Zm1-4H27.84v3H16.77Z"/><path class="cls-1" d="M15.77,39.41H28.84v-5H15.77Zm1-4H27.84v3H16.77Z"/><path class="cls-1" d="M15.77,49.32H28.84v-5H15.77Zm1-4H27.84v3H16.77Z"/><path class="cls-1" d="M15.77,59.23H28.84v-5H15.77Zm1-4H27.84v3H16.77Z"/><path class="cls-1" d="M15.77,69.15H28.84v-5H15.77Zm1-4H27.84v3H16.77Z"/><path class="cls-1" d="M53.43,46.46V18H49.72V9.52H40l-9.3-5.13L21.35,9.52H11.6V18H7.88V77.5H76.43V53H78V46.46ZM12.6,10.52h9l9.05-5,9.05,5h9V18H12.6Zm-3.72,66V19H52.43V46.46H45.54V44.35H32.48v5h5.1V53h1.7v1.27h-6.8v5h6.8v5h-6.8v5h6.8V76.5Zm30.4-18.27h-5.8v-3h5.8Zm0,9.92h-5.8v-3h5.8Zm5.26-21.69h-7v1.86h-4.1v-3H44.54Zm21.32,30h-16v-12h16Zm9.57,0H66.86v-13h-18v13H40.28V53H75.43Z"/></svg>