<svg id="students_01" xmlns="http://www.w3.org/2000/svg" viewBox="0 0 84 84"><defs><style>.cls-1{fill:#0047c0;}</style></defs><title>icons_84x84px</title><rect class="cls-1" x="23.23" y="19.27" width="35.53" height="1"/><rect class="cls-1" x="23.23" y="13.81" width="12.98" height="1"/><rect class="cls-1" x="23.23" y="24.73" width="35.53" height="1"/><rect class="cls-1" x="22.68" y="52.14" width="23.82" height="1"/><rect class="cls-1" x="22.68" y="57.55" width="23.82" height="1"/><path class="cls-1" d="M74.05,8.44l0,0c-.12-.12-.25-.22-.38-.33a4.46,4.46,0,0,0-.42-.34l-.07,0A4.83,4.83,0,0,0,71.43,7a5.81,5.81,0,0,0-.85-.1v0H22.72A5.16,5.16,0,0,0,17.57,12V41.48h-10v36H61.61V67.86H72.45V25.06H66.18V18.71H75.5V12A5.13,5.13,0,0,0,74.05,8.44ZM18.57,12a4.15,4.15,0,0,1,4.15-4.16h44.6A5.15,5.15,0,0,0,65.18,12V59.18H61.61V41.48H46.73V30.82H22.45V41.48H18.57ZM45.73,41.48H23.45V31.82H45.73Zm14.88,35h-52v-34H22.45v3.05h1V42.48H45.73v3.05h1V42.48H60.61ZM71.45,26.06v40.8H61.61V60.18h4.57V26.06Z"/></svg>