<svg id="students_01" xmlns="http://www.w3.org/2000/svg" viewBox="0 0 84 84"><defs><style>.cls-1{fill:#0047c0;}</style></defs><title>icons_84x84px</title><rect class="cls-1" x="17.23" y="63.27" width="31.77" height="1"/><rect class="cls-1" x="17.23" y="57.81" width="11.61" height="1"/><rect class="cls-1" x="17.23" y="68.73" width="31.77" height="1"/><path class="cls-1" d="M73,32.05V24l7.62-3L42.43,6.09,42.25,6,3.88,21l15.37,6H19l.14,11.74H11V76H55V52.83c6-1.14,10.25-2.86,10.25-4.09V27l6.6-2.57.15,0v7.6a3.18,3.18,0,0,0-2.5,3.2V47.36h6V35.25A3.18,3.18,0,0,0,73,32.05ZM54,75H12V39.75h7.15l.1,9C19.25,51.4,34,54,42.5,54A68.44,68.44,0,0,0,54,53ZM64.26,45.5c-2.49,1.53-11.08,4-21.51,4-11.41,0-21-3-22.54-4.41L20,27.3l22.07,8.61.18.07,22-8.59Zm-22-10.59L6.62,21,42.25,7.09,77.88,21l-6.17,2.4L42.56,20l-.12,1,27.29,3.18ZM74.5,46.36h-4V35.25a2,2,0,1,1,4,0Z"/></svg>