<svg id="students_01" xmlns="http://www.w3.org/2000/svg" viewBox="0 0 84 84"><defs><style>.cls-1{fill:#0047c0;}</style></defs><title>icons_84x84px</title><path class="cls-1" d="M71.71,46.38h0A30.8,30.8,0,1,0,59.5,66.19,12,12,0,0,0,75.12,54.75,11.93,11.93,0,0,0,71.71,46.38ZM39.26,11.71a33.7,33.7,0,0,0-12.2,14.17H16A29.76,29.76,0,0,1,39.26,11.71ZM15.41,26.88H26.62a37.89,37.89,0,0,0-2.74,14H11.64A29.47,29.47,0,0,1,15.41,26.88Zm-3.77,15H23.89a37.75,37.75,0,0,0,2.69,14H15.41A29.53,29.53,0,0,1,11.64,41.88Zm4.35,15H27A32.87,32.87,0,0,0,39,71,29.76,29.76,0,0,1,16,56.88ZM40.88,71A31.74,31.74,0,0,1,28.1,56.88H40.88Zm0-15.1H27.66a36.62,36.62,0,0,1-2.77-14h16Zm0-15h-16a36.54,36.54,0,0,1,2.84-14H40.88Zm0-15H28.17A33.1,33.1,0,0,1,40.66,12l.22-.14ZM70.82,45.55A12,12,0,0,0,58.4,43.72h0q0-.9.06-1.83H71.11A29.62,29.62,0,0,1,70.82,45.55Zm.29-4.67H58.5a37.72,37.72,0,0,0-2.75-14H67.34A29.47,29.47,0,0,1,71.11,40.88Zm-4.35-15H55.32a33.74,33.74,0,0,0-12.26-14.2A29.76,29.76,0,0,1,66.76,25.88ZM41.88,12.09A33.06,33.06,0,0,1,54.21,25.88H41.88Zm0,14.79H54.66a36.54,36.54,0,0,1,2.84,14H41.88Zm0,15H57.49c0,.79-.05,1.57-.1,2.32h0a12,12,0,0,0-6.27,10.55c0,.38,0,.75.06,1.13h-9.3Zm0,15h9.44a12,12,0,0,0,1.14,3.36h0A31.8,31.8,0,0,1,41.88,70.76Zm16.5,8.89a29.57,29.57,0,0,1-15.09,5.29A32.92,32.92,0,0,0,53,61.22a12,12,0,0,0,5.35,4.55Zm5.74-5.27-.07.09H62.12V52.94h2Zm0-9.5h-2V48.5h2Z"/></svg>