<svg id="students_01" xmlns="http://www.w3.org/2000/svg" viewBox="0 0 84 84"><defs><style>.cls-1{fill:#0047c0;}</style></defs><title>icons_84x84px</title><path class="cls-1" d="M46.5,39V31.5c0-5.24-5.83-9.5-13-9.5s-13,4.26-13,9.5V39H6V79h7V72H39.5V55.25H72V79h7V39Zm-25-7.5c0-4.69,5.38-8.5,12-8.5s12,3.81,12,8.5V39H40V34H39v5H28.57V34h-1v5H21.5ZM38.5,71H13V55.25H38.5ZM13,54.25V46H38.5v8.25Zm59,0H39.5V46H72ZM78,78H73V45H12V78H7V40H78Z"/><rect class="cls-1" x="18" y="58" width="15" height="5"/><path class="cls-1" d="M33,20a7,7,0,1,0-7-7A7,7,0,0,0,33,20ZM33,7a6,6,0,1,1-6,6A6,6,0,0,1,33,7Z"/></svg>