<svg id="students_01" xmlns="http://www.w3.org/2000/svg" viewBox="0 0 84 84"><defs><style>.cls-1{fill:#0047c0;}</style></defs><title>icons_84x84px</title><path class="cls-1" d="M63.52,31.79,70.2,18.57l-7.53-3.8L56,28Zm-.41-15.68L68.86,19,63.08,30.44l-5.75-2.9Z"/><path class="cls-1" d="M77,51H74.88V40.63c0-.1,0-.21,0-.31h0V32.26a2.51,2.51,0,0,0-2.5-2.5h-.69l4.08-8.09A4.4,4.4,0,0,0,76,18.24a4.47,4.47,0,0,0-2.24-2.62l-15-7.55,0,0L58,7.59v0L50.59,3.9a4.5,4.5,0,0,0-6.05,2L32.48,29.76H11a2.5,2.5,0,0,0-2.5,2.5v8.06h0c0,.1,0,.21,0,.31V73A4.51,4.51,0,0,0,13,77.5H70.38a4.51,4.51,0,0,0,4.5-4.5V62.63H77ZM58.39,9l15,7.56a3.5,3.5,0,0,1,1.54,4.7L67.35,36.13H44.66Zm-.89-.45-14,27.62H38.71L53.65,6.57ZM45.44,6.34a3.47,3.47,0,0,1,3.12-1.92,3.52,3.52,0,0,1,1.58.37l2.62,1.33-15.17,30H30.38ZM73.88,73a3.51,3.51,0,0,1-3.5,3.5H13A3.5,3.5,0,0,1,9.51,73V40.63a3.5,3.5,0,0,1,3.5-3.5H70.38a3.51,3.51,0,0,1,3.5,3.5V51H68.94a2.51,2.51,0,0,0-2.5,2.5v6.63a2.5,2.5,0,0,0,2.5,2.5h4.94ZM76,61.63H68.94a1.5,1.5,0,0,1-1.5-1.5V53.5a1.5,1.5,0,0,1,1.5-1.5H76Z"/></svg>