<svg id="students_01" xmlns="http://www.w3.org/2000/svg" viewBox="0 0 84 84"><defs><style>.cls-1{fill:#0047c0;}</style></defs><title>icons_84x84px</title><path class="cls-1" d="M79,58a12,12,0,0,0-4-8.93V35H48V33.87l27-24-.67-.74L48,32.53V30H45.63L71.83,6.71,71.17,6l-27,24,0,0H38l0,0L11,6l-.67.75L36.54,30H34v2.39L7.83,9.13l-.66.74L34,33.72V35H7V75H75V66.93A12,12,0,0,0,79,58Zm-5-2.37-7.08,8.08L61.17,58l1.41-1.42,4.25,4.25,6.29-7.2.88.77ZM35,31H47v7H35ZM74,74H8V36H34v3H48V36H74V48.27A12,12,0,0,0,58.07,50H42v1H57.27a11.75,11.75,0,0,0-1.57,3H42v1H55.39A12.33,12.33,0,0,0,55,58a12,12,0,0,0,19,9.73Z"/><rect class="cls-1" x="42" y="46" width="10.29" height="1"/><path class="cls-1" d="M14.5,67.5h22v-25h-22Zm5-1c0-2.48,2.69-4.5,6-4.5s6,2,6,4.5Zm-4-23h20v23h-3c0-3-3.14-5.5-7-5.5s-7,2.47-7,5.5h-3Z"/><path class="cls-1" d="M25.5,60A5.5,5.5,0,1,0,20,54.5,5.51,5.51,0,0,0,25.5,60Zm0-10A4.5,4.5,0,1,1,21,54.5,4.51,4.51,0,0,1,25.5,50Z"/></svg>