<svg width="30" height="34" viewBox="0 0 30 34" fill="none" xmlns="http://www.w3.org/2000/svg">
<path d="M29.2521 22.2469L28.7535 20.316L24.6814 21.4074L22.3546 20.0642L24.5152 19.4765L24.0166 17.5457L19.9446 18.637L17.036 16.958L19.9446 15.279L24.0166 16.3704L24.5152 14.4395L22.3546 13.8519L24.6814 12.5086L28.7535 13.6L29.2521 11.6691L27.0914 11.0815L30 9.40247L29.0028 7.72346L26.0942 9.40247L26.6759 7.21975L24.7645 6.71605L23.6842 10.8296L21.3573 12.1728L21.9391 9.99012L20.0277 9.48642L18.9474 13.6L16.0388 15.279V11.7531L19.0305 8.73086L17.6177 7.3037L16.0388 8.89877V6.21235L19.0305 3.19012L17.6177 1.76296L16.0388 3.35802V0H14.0443V3.44198L12.4654 1.84691L11.0526 3.27407L14.0443 6.2963V9.06667L12.4654 7.4716L11.0526 8.89877L14.0443 11.921V15.363L11.1357 13.6839L9.9723 9.31852L8.06094 9.82222L8.64266 12.0049L6.31579 10.6617L5.23546 6.54815L3.3241 7.05185L3.90582 9.23457L0.99723 7.55556L0 9.23457L2.90859 10.9136L0.747922 11.5012L1.24654 13.4321L5.31856 12.3407L7.64543 13.6839L5.48476 14.2716L5.98338 16.2025L10.0554 15.1111L12.964 16.7901L10.0554 18.4691L5.98338 17.3778L5.48476 19.3086L7.64543 19.8963L5.31856 21.2395L1.24654 20.1481L0.747922 22.079L2.90859 22.6667L0 24.3457L0.99723 26.0247L3.90582 24.3457L3.3241 26.6963L5.23546 27.2L6.31579 23.0864L8.64266 21.7432L8.06094 23.9259L9.9723 24.4296L11.0526 20.316L13.9612 18.637V22.079L10.9695 25.1012L12.3823 26.5284L13.9612 24.9333V27.7037L10.9695 30.7259L12.3823 32.1531L13.9612 30.558V34H15.9557V30.558L17.5346 32.1531L18.9474 30.7259L15.9557 27.7037V24.9333L17.5346 26.5284L18.9474 25.1012L15.9557 22.079V18.637L18.8643 20.316L19.9446 24.4296L21.856 23.9259L21.2742 21.7432L23.6011 23.0864L24.6814 27.2L26.5928 26.6963L26.0111 24.5136L28.9197 26.1926L29.9169 24.5136L27.0083 22.8346L29.2521 22.2469Z" fill="#004ABA"/>
</svg>
