<svg width="30" height="22" viewBox="0 0 30 22" fill="none" xmlns="http://www.w3.org/2000/svg">
<path d="M15.119 9.17431V5.52117H13.4536L13.5329 1.94922H9.96412L9.88481 5.52117H6.39538L6.47469 1.94922H2.90595L2.82665 5.52117H0.764709V9.17431H2.66804L2.50943 12.8274H0.764709V16.4806H2.43012L2.35081 19.9714H5.91955L5.99886 16.3994H9.56759L9.48829 19.9714H13.057L13.1363 16.3994H15.1983V12.7463H13.2949L13.4536 9.09313H15.119V9.17431ZM9.6469 12.8274H6.15747L6.31608 9.17431H9.88481L9.6469 12.8274Z" fill="#004ABA"/>
<path d="M26.4596 18.3469V0H20.0359V3.65314H22.8909V18.3469H20.0359V22H29.2353V18.3469H26.4596Z" fill="#004ABA"/>
</svg>
