<svg width="36" height="36" viewBox="0 0 36 36" fill="none" xmlns="http://www.w3.org/2000/svg">
<path d="M24.4302 13.6571C23.9011 11.1878 21.52 8.63028 18.0805 8.36571C14.7293 8.10114 11.6426 10.2177 10.5843 13.3926C9.61423 16.4792 10.9371 19.5659 12.7891 20.8888C12.8773 20.8006 12.8773 20.7124 12.9655 20.6242C13.4946 19.9187 13.9356 19.125 14.4647 18.4194C15.082 17.6257 15.8758 17.273 16.8459 17.3611C17.1104 17.3611 17.2868 17.273 17.375 17.0966C18.1687 15.9501 18.9624 14.7154 19.7561 13.569C20.5499 12.4225 21.7845 11.9815 23.0192 12.4225C23.6365 12.687 24.0775 13.128 24.4302 13.6571ZM18.4333 3.7798C18.4333 3.16247 18.4333 2.63333 18.4333 2.01599C18.4333 1.39866 18.0805 1.0459 17.5514 1.0459C17.0222 1.0459 16.6695 1.48685 16.6695 2.01599C16.6695 3.16247 16.6695 4.30895 16.6695 5.54361C16.6695 6.16095 17.0222 6.51371 17.5514 6.51371C18.0805 6.51371 18.4333 6.07276 18.4333 5.54361C18.4333 4.92628 18.4333 4.39714 18.4333 3.7798ZM5.73385 15.5973C6.35118 15.5973 6.88033 15.5973 7.49766 15.5973C8.11499 15.5973 8.55595 15.2446 8.55595 14.7154C8.55595 14.1863 8.11499 13.8335 7.58585 13.8335C6.43937 13.8335 5.2929 13.8335 4.14642 13.8335C3.52909 13.8335 3.08813 14.1863 3.08813 14.7154C3.08813 15.2446 3.52909 15.5973 4.14642 15.5973C4.58737 15.5973 5.11652 15.5973 5.73385 15.5973ZM11.378 7.48381C11.378 7.39562 11.2899 7.13104 11.1135 6.95466C10.2316 6.07276 9.43785 5.27904 8.64414 4.48533C8.46776 4.30895 8.20318 4.22076 8.0268 4.22076C7.67404 4.13257 7.32128 4.39714 7.1449 4.66171C6.96852 5.01447 6.96852 5.36723 7.32128 5.72C7.93861 6.33733 8.55595 6.95466 9.08509 7.572C9.34966 7.83657 9.61423 8.10114 9.8788 8.27752C10.1434 8.54209 10.4961 8.54209 10.8489 8.4539C11.2017 8.27752 11.378 8.01295 11.378 7.48381ZM24.6948 8.54209C24.783 8.4539 25.0476 8.36571 25.3121 8.18933C26.1059 7.39562 26.8996 6.6019 27.6933 5.80819L27.7815 5.72C28.1342 5.36723 28.1342 4.83809 27.7815 4.48533C27.4287 4.13257 26.8996 4.13257 26.5468 4.48533C25.9295 5.10266 25.3121 5.72 24.6948 6.33733C24.4302 6.6019 24.1657 6.86647 23.9011 7.13104C23.6365 7.39562 23.6365 7.74838 23.8129 8.10114C23.9011 8.36571 24.1657 8.54209 24.6948 8.54209ZM29.2807 15.5973C29.8099 15.5973 30.4272 15.5973 30.9563 15.5973C31.5737 15.5973 32.0146 15.2446 32.0146 14.7154C32.0146 14.1863 31.5737 13.8335 31.0445 13.8335C29.8981 13.8335 28.7516 13.8335 27.6051 13.8335C26.9878 13.8335 26.5468 14.1863 26.5468 14.7154C26.5468 15.2446 26.9878 15.5973 27.6051 15.5973C28.1342 15.5973 28.7516 15.5973 29.2807 15.5973Z" fill="#004ABA"/>
<path d="M3.70563 31.9124L3.61744 31.8242C3.0001 31.4715 2.91191 30.9423 3.26468 30.4132C3.70563 29.884 4.05839 29.3549 4.49934 28.7376C5.8222 26.8856 7.23325 25.1217 8.55611 23.2697C8.73249 23.0934 8.90887 22.917 9.08525 22.8288C9.43801 22.6524 9.87897 22.7406 10.1435 23.1816C10.6727 23.8871 11.2018 24.5926 11.731 25.2099C11.8192 25.2981 11.8192 25.3863 11.9073 25.4745C11.9955 25.3863 12.0837 25.2981 12.0837 25.2099C13.3184 23.3579 14.5531 21.5059 15.7877 19.6539C16.1405 19.213 16.5814 18.9484 17.0224 19.213C17.1988 19.3012 17.3752 19.4776 17.5515 19.7421C19.7563 23.0934 21.9611 26.3564 24.1658 29.7077C24.6068 30.4132 25.1359 31.1187 25.5769 31.9124C18.2571 31.9124 10.9373 31.9124 3.70563 31.9124Z" fill="#004ABA"/>
<path d="M27.6933 31.9126C25.0476 27.944 22.4018 23.8872 19.7561 19.9186C19.4916 19.4777 19.227 19.0367 18.8742 18.684C18.6978 18.5076 18.6978 18.3312 18.8742 18.1548C19.6679 17.0084 20.3735 15.8619 21.1672 14.7154C21.6963 13.9217 22.4018 13.9217 22.931 14.7154C26.0177 19.3013 29.1043 23.799 32.2792 28.3849C32.7201 29.0023 33.0729 29.5314 33.5139 30.1487C33.6902 30.4133 33.7784 30.5897 33.9548 30.8543C33.9548 31.0306 33.9548 31.1188 33.9548 31.2952C33.6902 31.5598 33.5139 31.7362 33.2493 32.0007C31.3973 31.9126 29.5453 31.9126 27.6933 31.9126Z" fill="#004ABA"/>
<path d="M24.4301 13.6571C24.0773 13.128 23.6364 12.6871 23.019 12.5107C21.7844 12.0697 20.4615 12.5107 19.756 13.6571C18.9623 14.8036 18.1686 16.0383 17.3748 17.1848C17.1985 17.3611 17.1103 17.4493 16.8457 17.4493C15.8756 17.3611 15.0819 17.7139 14.4646 18.5076C13.9354 19.2131 13.4945 20.0069 12.9653 20.7124C12.8771 20.8006 12.8771 20.8888 12.7889 20.977C11.0251 19.5659 9.70227 16.5674 10.5842 13.4808C11.5543 10.3059 14.6409 8.18933 17.9922 8.36572C21.5198 8.63029 23.9009 11.1878 24.4301 13.6571Z" fill="#004ABA"/>
<path d="M18.4332 3.7801C18.4332 4.30925 18.4332 4.92658 18.4332 5.45572C18.4332 6.07306 18.0804 6.42582 17.5513 6.42582C17.0221 6.42582 16.6694 5.98487 16.6694 5.45572C16.6694 4.30925 16.6694 3.16277 16.6694 1.9281C16.6694 1.31077 17.0221 0.958008 17.5513 0.958008C18.0804 0.958008 18.4332 1.39896 18.4332 1.9281C18.4332 2.63363 18.4332 3.25096 18.4332 3.7801Z" fill="#004ABA"/>
<path d="M5.73391 15.5968C5.20476 15.5968 4.58743 15.5968 4.05829 15.5968C3.44095 15.5968 3 15.2441 3 14.7149C3 14.1858 3.44095 13.833 4.05829 13.833C5.20476 13.833 6.35124 13.833 7.49772 13.833C8.11505 13.833 8.46781 14.1858 8.46781 14.7149C8.46781 15.2441 8.02686 15.5968 7.40953 15.5968C6.88038 15.5968 6.26305 15.5968 5.73391 15.5968Z" fill="#004ABA"/>
<path d="M11.3781 7.48377C11.3781 8.01291 11.2017 8.27748 10.8489 8.45386C10.4961 8.63024 10.2316 8.54205 9.87882 8.27748C9.61424 8.1011 9.34967 7.83653 9.0851 7.57196C8.46777 6.95462 7.93862 6.33729 7.32129 5.71996C6.96853 5.36719 6.96853 5.01443 7.14491 4.66167C7.32129 4.30891 7.67405 4.13253 8.02681 4.22072C8.2032 4.22072 8.46777 4.3971 8.64415 4.48529C9.43786 5.279 10.3198 6.16091 11.1135 6.95462C11.2899 7.131 11.3781 7.39557 11.3781 7.48377Z" fill="#004ABA"/>
<path d="M24.6949 8.54136C24.1658 8.54136 23.9012 8.36498 23.7248 8.01222C23.5484 7.65946 23.6366 7.30669 23.813 7.04212C24.0776 6.77755 24.3421 6.51298 24.6067 6.24841C25.224 5.63107 25.8414 5.01374 26.4587 4.39641C26.8115 4.04365 27.3406 4.04365 27.6934 4.39641C28.0461 4.74917 28.0461 5.27831 27.6934 5.63107L27.6052 5.71927C26.8115 6.51298 26.0178 7.30669 25.224 8.10041C25.1359 8.36498 24.8713 8.45317 24.6949 8.54136Z" fill="#004ABA"/>
<path d="M29.2808 15.5968C28.7516 15.5968 28.1343 15.5968 27.6052 15.5968C26.9878 15.5968 26.5469 15.2441 26.5469 14.7149C26.5469 14.1858 26.9878 13.833 27.6052 13.833C28.7516 13.833 29.8981 13.833 31.0446 13.833C31.6619 13.833 32.0147 14.1858 32.0147 14.7149C32.0147 15.2441 31.5737 15.5968 30.9564 15.5968C30.4273 15.5968 29.8099 15.5968 29.2808 15.5968Z" fill="#004ABA"/>
</svg>
