<svg width="22" height="28" viewBox="0 0 22 28" fill="none" xmlns="http://www.w3.org/2000/svg">
<path d="M12.2 0.954545C11.4 -0.318182 10.6 -0.318182 9.79998 0.954545C6.27998 6.20455 0.919983 14.0795 0.919983 17.9773C0.919983 20.7614 2.03998 23.2273 3.87998 25.0568C5.71998 26.8864 8.19998 28 11 28C13.8 28 16.28 26.8864 18.12 25.0568C19.96 23.2273 21.08 20.7614 21.08 17.9773C21.08 14 15.72 6.20455 12.2 0.954545ZM18.28 22.4318C17.56 23.625 16.52 24.6591 15.24 25.375C14.68 25.6932 13.96 25.5341 13.64 24.8977C13.24 24.2614 13.48 23.5455 14.12 23.2273C15 22.75 15.72 22.0341 16.28 21.1591C16.84 20.2841 17.16 19.3295 17.16 18.2955C17.24 17.5795 17.72 17.1023 18.44 17.1818C19.16 17.2614 19.64 17.7386 19.56 18.4545C19.48 19.8864 19 21.2386 18.28 22.4318Z" fill="#004ABA"/>
</svg>
