<svg width="36" height="36" viewBox="0 0 36 36" fill="none" xmlns="http://www.w3.org/2000/svg">
<path d="M33.1438 7.55887H31.9323C31.413 4.61667 28.6439 2.62636 25.7017 3.05904C23.1057 3.49172 21.1154 5.74163 21.1154 8.42422C21.1154 12.8375 24.6633 16.3855 29.0766 16.3855H32.0188V9.28958H33.1438C33.663 9.28958 34.0091 8.8569 34.0091 8.42422C34.0091 7.99155 33.5764 7.55887 33.1438 7.55887ZM28.1247 8.77036C27.6055 8.77036 27.2594 8.33769 27.2594 7.90501C27.2594 7.47234 27.692 7.03966 28.1247 7.03966C28.6439 7.03966 28.9901 7.47234 28.9901 7.90501C28.9901 8.42422 28.5574 8.77036 28.1247 8.77036Z" fill="#004ABA"/>
<path d="M25.269 17.3379C25.1825 18.2032 24.9229 18.9821 24.6633 19.7609C23.1922 23.4819 19.9039 26.0779 15.9232 26.6837L13.9329 27.0298C15.3175 27.8952 16.8751 28.5009 18.5193 28.8471L19.2981 31.2701H19.0385C18.5193 31.2701 18.1731 31.7027 18.1731 32.1354C18.1731 32.6546 18.6058 33.0008 19.0385 33.0008H27.0863C27.6055 33.0008 27.9516 32.5681 27.9516 32.1354C27.9516 31.6162 27.5189 31.2701 27.0863 31.2701H25.1825L24.2306 28.3279C28.6439 26.7702 31.6726 22.7896 32.0188 18.1167H29.1631C27.7786 18.1167 26.4805 17.8571 25.269 17.3379ZM21.2019 31.1835L20.4231 28.9336C21.1153 28.9336 21.8076 28.8471 22.4999 28.7605L23.3653 31.2701H21.2019V31.1835Z" fill="#004ABA"/>
<path d="M23.0189 19.0678C23.3651 18.2025 23.5381 17.3371 23.6247 16.3853C21.8074 15.1738 20.5094 13.4431 19.8171 11.3662C17.9134 14.6545 14.9712 17.1641 11.5097 18.5486L5.45228 20.9716C3.37544 21.837 1.99088 23.8273 1.99088 26.0772C1.99088 26.5964 2.42355 26.9425 2.85623 26.9425C2.94276 26.9425 2.94276 26.9425 3.0293 26.9425L15.6634 24.9522C18.9518 24.433 21.8074 22.1831 23.0189 19.0678Z" fill="#004ABA"/>
</svg>
