<svg width="24" height="22" viewBox="0 0 24 22" fill="none" xmlns="http://www.w3.org/2000/svg">
<path fill-rule="evenodd" clip-rule="evenodd" d="M16.8197 16.5536C15.1343 18.1741 12.8365 19.1716 10.3038 19.1716C5.13307 19.1716 0.941406 15.0142 0.941406 9.88563C0.941406 4.7571 5.13307 0.599609 10.3038 0.599609C15.4744 0.599609 19.6661 4.7571 19.6661 9.88563C19.6661 11.9286 19.0009 13.8175 17.8737 15.3509L23.0783 20.2978L21.9186 21.4002L16.8197 16.5536ZM18.0661 9.88563C18.0661 14.1182 14.6032 17.5716 10.3038 17.5716C6.00435 17.5716 2.54141 14.1182 2.54141 9.88563C2.54141 5.65308 6.00435 2.19961 10.3038 2.19961C14.6032 2.19961 18.0661 5.65308 18.0661 9.88563Z" fill="#031B4B"/>
</svg>
