<?xml version="1.0" encoding="utf-8"?><svg width="44" height="44" fill="none" xmlns="http://www.w3.org/2000/svg" viewBox="0 0 44 44"><mask id="ana" fill="#fff"><path fill-rule="evenodd" clip-rule="evenodd" d="M22 44c12.15 0 22-9.85 22-22S34.15 0 22 0 0 9.85 0 22s9.85 22 22 22zM8.609 22.956h20.585l-8.858 8.859 1.415 1.414 10.521-10.522.707-.707-.707-.707L21.751 10.77l-1.415 1.414 8.772 8.771h-20.5v2z"/></mask><path fill-rule="evenodd" clip-rule="evenodd" d="M22 44c12.15 0 22-9.85 22-22S34.15 0 22 0 0 9.85 0 22s9.85 22 22 22zM8.609 22.956h20.585l-8.858 8.859 1.415 1.414 10.521-10.522.707-.707-.707-.707L21.751 10.77l-1.415 1.414 8.772 8.771h-20.5v2z" fill="#fff"/><path d="M29.195 22.956l1.414 1.415 3.414-3.415h-4.829v2zm-20.586 0h-2v2h2v-2zm11.727 8.859L18.922 30.4l-1.414 1.415 1.414 1.414 1.414-1.414zm1.415 1.414l-1.415 1.414 1.415 1.414 1.414-1.414-1.414-1.414zm10.521-10.522l1.415 1.414-1.415-1.414zM32.98 22l1.415 1.414L35.808 22l-1.414-1.414L32.979 22zm-.707-.707l1.415-1.414-1.415 1.414zM21.751 10.77l1.414-1.414-1.414-1.414-1.415 1.414 1.415 1.414zm-1.415 1.414l-1.414-1.414-1.414 1.414 1.414 1.415 1.414-1.415zm8.772 8.771v2h4.828l-3.414-3.414-1.414 1.414zm-20.5 0v-2h-2v2h2zM42 22c0 11.046-8.954 20-20 20v4c13.255 0 24-10.745 24-24h-4zM22 2c11.046 0 20 8.954 20 20h4C46 8.745 35.255-2 22-2v4zM2 22C2 10.954 10.954 2 22 2v-4C8.745-2-2 8.745-2 22h4zm20 20C10.954 42 2 33.046 2 22h-4c0 13.255 10.745 24 24 24v-4zm7.195-21.044H8.609v4h20.586v-4zM21.75 33.23l8.858-8.858-2.829-2.829-8.858 8.858 2.829 2.829zm1.414-1.414L21.75 30.4l-2.829 2.829 1.414 1.414 2.829-2.828zm7.693-10.522L20.336 31.815l2.829 2.828 10.522-10.522-2.829-2.828zm.707-.707l-.707.707 2.829 2.828.707-.707-2.829-2.828zm-.707 2.121l.707.707 2.829-2.828-.707-.707-2.829 2.828zM20.336 12.185l10.522 10.522 2.829-2.828L23.165 9.357l-2.829 2.828zm1.415 1.415l1.414-1.415-2.829-2.828-1.414 1.414 2.829 2.829zm8.77 5.942l-8.77-8.77-2.829 2.828 8.771 8.77 2.829-2.828zM8.61 22.956h20.498v-4H8.61v4zm2 0v-2h-4v2h4z" fill="#fff" mask="url(#ana)"/></svg>