<?xml version="1.0" encoding="utf-8"?><svg width="14" height="14" fill="none" xmlns="http://www.w3.org/2000/svg" viewBox="0 0 14 14"><path d="M1 5.941L7 1l6 4.941V13H9.25v-2.823c0-.562-.237-1.1-.659-1.498A2.323 2.323 0 007 8.06c-.597 0-1.169.223-1.591.62a2.056 2.056 0 00-.659 1.498V13H1V5.941z" fill="#004ABA"/><path d="M1 5.941L7 1l6 4.941V13H9.25v-2.823c0-.562-.237-1.1-.659-1.498A2.323 2.323 0 007 8.06c-.597 0-1.169.223-1.591.62a2.056 2.056 0 00-.659 1.498V13H1V5.941z" stroke="#004ABA" stroke-linecap="round" stroke-linejoin="round"/></svg>