<?xml version="1.0" encoding="utf-8"?><svg id="bjstudents_01" xmlns="http://www.w3.org/2000/svg" viewBox="0 0 84 84" width="84" height="84"><defs><style>.bjcls-1{fill:#0047c0}</style></defs><path class="bjcls-1" d="M17.23 63.27H49v1H17.23zM17.23 57.81h11.61v1H17.23zM17.23 68.73H49v1H17.23z"/><path class="bjcls-1" d="M73 32.05V24l7.62-3L42.43 6.09 42.25 6 3.88 21l15.37 6H19l.14 11.74H11V76h44V52.83c6-1.14 10.25-2.86 10.25-4.09V27l6.6-2.57H72v7.6a3.18 3.18 0 00-2.5 3.2v12.13h6V35.25a3.18 3.18 0 00-2.5-3.2zM54 75H12V39.75h7.15l.1 9C19.25 51.4 34 54 42.5 54A68.44 68.44 0 0054 53zm10.26-29.5c-2.49 1.53-11.08 4-21.51 4-11.41 0-21-3-22.54-4.41L20 27.3l22.07 8.61.18.07 22-8.59zm-22-10.59L6.62 21 42.25 7.09 77.88 21l-6.17 2.4L42.56 20l-.12 1 27.29 3.18zM74.5 46.36h-4V35.25a2 2 0 114 0z"/></svg>