<?xml version="1.0" encoding="utf-8"?><svg id="bjstudents_01" xmlns="http://www.w3.org/2000/svg" viewBox="0 0 84 84" width="84" height="84"><defs><style>.bjcls-1{fill:#0047c0}</style></defs><path class="bjcls-1" d="M45.54 24.53H32.48v5h13.06zm-1 4H33.48v-3h11.06zM45.54 34.44H32.48v5h13.06zm-1 4H33.48v-3h11.06zM15.77 29.49h13.07v-5H15.77zm1-4h11.07v3H16.77zM15.77 39.41h13.07v-5H15.77zm1-4h11.07v3H16.77zM15.77 49.32h13.07v-5H15.77zm1-4h11.07v3H16.77zM15.77 59.23h13.07v-5H15.77zm1-4h11.07v3H16.77zM15.77 69.15h13.07v-5H15.77zm1-4h11.07v3H16.77z"/><path class="bjcls-1" d="M53.43 46.46V18h-3.71V9.52H40l-9.3-5.13-9.35 5.13H11.6V18H7.88v59.5h68.55V53H78v-6.54zM12.6 10.52h9l9.05-5 9.05 5h9V18H12.6zm-3.72 66V19h43.55v27.46h-6.89v-2.11H32.48v5h5.1V53h1.7v1.27h-6.8v5h6.8v5h-6.8v5h6.8v7.23zm30.4-18.27h-5.8v-3h5.8zm0 9.92h-5.8v-3h5.8zm5.26-21.69h-7v1.86h-4.1v-3h11.1zm21.32 30h-16v-12h16zm9.57 0h-8.57v-13h-18v13h-8.58V53h35.15z"/></svg>