<?xml version="1.0" encoding="utf-8"?><svg id="bestudents_01" xmlns="http://www.w3.org/2000/svg" viewBox="0 0 84 84" width="84" height="84"><defs><style>.becls-1{fill:#0047c0}</style></defs><path class="becls-1" d="M35 19.38h15.44v1H35zM12 51.13h26v1H12zM12 45.75h9.5v1H12zM12 56.5h26v1H12z"/><path class="becls-1" d="M78.26 27.75A12 12 0 0074.5 19v-9h-47v23h-22v32.46h7.56v10l17.2-10h15.39V46.85h4.09l17.2 10v-10h7.56V36.46a12 12 0 003.76-8.71zM44.65 64.46H30l-15.94 9.25v-9.25H6.5V34h21v12.85h17.15zM73.5 45.85h-7.56v9.25L50 45.85H28.48V11h45v7.2a12 12 0 00-18.85 6.55H35v1h19.44a12 12 0 00-.18 2 11.55 11.55 0 00.24 2.37H35v1h19.75a12 12 0 002.36 4.38H35v1h23.06a11.95 11.95 0 0015.44.8zM66.87 29.6v.86a.18.18 0 01-.2.2h-1.48c-.13 0-.19-.07-.19-.2v-1a2.22 2.22 0 01.44-1.43 7 7 0 011.29-1.19 7.51 7.51 0 001.2-1.08 1.84 1.84 0 00.4-1.23 1.76 1.76 0 00-.57-1.38 2.44 2.44 0 00-3 0 1.78 1.78 0 00-.58 1.39v.51a.18.18 0 01-.2.19l-1.46-.08a.17.17 0 01-.19-.19v-.37a3.44 3.44 0 01.5-1.87 3.37 3.37 0 011.41-1.28 4.73 4.73 0 012.1-.45 4 4 0 012.81 1 3.29 3.29 0 011.06 2.55 3.46 3.46 0 01-.3 1.45 3.33 3.33 0 01-.69 1 9.33 9.33 0 01-1 .86 7.63 7.63 0 00-1 .87 1.31 1.31 0 00-.35.87zm.25 3.81a1.2 1.2 0 01-1.24 1.24 1.19 1.19 0 01-.88-.35 1.21 1.21 0 01-.35-.89 1.2 1.2 0 011.23-1.23 1.21 1.21 0 01.89.35 1.19 1.19 0 01.35.88z"/></svg>