<?xml version="1.0" encoding="utf-8"?><svg id="bastudents_01" xmlns="http://www.w3.org/2000/svg" viewBox="0 0 84 84" width="84" height="84"><defs><style>.bacls-1{fill:#0047c0}</style></defs><path class="bacls-1" d="M14 69h22v1H14zM14 65h22v1H14zM14 61h12.57v1H14zM18 29h41v1H18zM18 25h23.43v1H18zM17.94 13h41v6h-41z"/><path class="bacls-1" d="M72 39.8V12.5h-6.81V7h-53.5v26.57H7.5V76.5h69V39.8zm-1-26.3v26.3h-5.81V13.5zM12.69 8h51.5v31.8H37.34l-4.53-6.23H12.69zM75.5 75.5h-67V34.57h23.8l4.53 6.23H75.5z"/></svg>