<?xml version="1.0" encoding="utf-8"?><svg id="bfstudents_01" xmlns="http://www.w3.org/2000/svg" viewBox="0 0 84 84" width="84" height="84"><defs><style>.bfcls-1{fill:#0047c0}</style></defs><path class="bfcls-1" d="M79 58a12 12 0 00-4-8.93V35H48v-1.13l27-24-.67-.74L48 32.53V30h-2.37l26.2-23.29-.66-.71-27 24H38L11 6l-.67.75L36.54 30H34v2.39L7.83 9.13l-.66.74L34 33.72V35H7v40h68v-8.07A12 12 0 0079 58zm-5-2.37l-7.08 8.08L61.17 58l1.41-1.42 4.25 4.25 6.29-7.2.88.77zM35 31h12v7H35zm39 43H8V36h26v3h14v-3h26v12.27A12 12 0 0058.07 50H42v1h15.27a11.75 11.75 0 00-1.57 3H42v1h13.39a12.33 12.33 0 00-.39 3 12 12 0 0019 9.73z"/><path class="bfcls-1" d="M42 46h10.29v1H42zM14.5 67.5h22v-25h-22zm5-1c0-2.48 2.69-4.5 6-4.5s6 2 6 4.5zm-4-23h20v23h-3c0-3-3.14-5.5-7-5.5s-7 2.47-7 5.5h-3z"/><path class="bfcls-1" d="M25.5 60a5.5 5.5 0 10-5.5-5.5 5.51 5.51 0 005.5 5.5zm0-10a4.5 4.5 0 11-4.5 4.5 4.51 4.51 0 014.5-4.5z"/></svg>