<?xml version="1.0" encoding="utf-8"?><svg id="bcstudents_01" xmlns="http://www.w3.org/2000/svg" viewBox="0 0 84 84" width="84" height="84"><defs><style>.bccls-1{fill:#0047c0}</style></defs><path class="bccls-1" d="M46.5 39v-7.5c0-5.24-5.83-9.5-13-9.5s-13 4.26-13 9.5V39H6v40h7v-7h26.5V55.25H72V79h7V39zm-25-7.5c0-4.69 5.38-8.5 12-8.5s12 3.81 12 8.5V39H40v-5h-1v5H28.57v-5h-1v5H21.5zm17 39.5H13V55.25h25.5zM13 54.25V46h25.5v8.25zm59 0H39.5V46H72zM78 78h-5V45H12v33H7V40h71z"/><path class="bccls-1" d="M18 58h15v5H18zM33 20a7 7 0 10-7-7 7 7 0 007 7zm0-13a6 6 0 11-6 6 6 6 0 016-6z"/></svg>