<?xml version="1.0" encoding="utf-8"?><svg id="bhstudents_01" xmlns="http://www.w3.org/2000/svg" viewBox="0 0 84 84" width="84" height="84"><defs><style>.bhcls-1{fill:#0047c0}</style></defs><path class="bhcls-1" d="M74.5 5.5h-52v4h-5v4h-7v66h54v-5h5v-4h5zm-11 73h-52v-64H52V26h11.5zm5-5h-4V25a.45.45 0 00-.13-.35l-11-11a.45.45 0 00-.35-.13H18.5v-3h50zm5-4h-4v-60h-46v-3h50z"/><path class="bhcls-1" d="M41.5 37h14v1h-14zM41.5 33h14v1h-14zM17 64.13h40v1H17zM17 58.75h40v1H17zM17 53.13h40v1H17zM17 47.75h40v1H17zM17 69.5h40v1H17zM41.5 29h8v1h-8zM17 37h14v1H17zM17 33h14v1H17zM17 29h8v1h-8z"/></svg>