<?xml version="1.0" encoding="utf-8"?><svg id="bistudents_01" xmlns="http://www.w3.org/2000/svg" viewBox="0 0 84 84" width="84" height="84"><defs><style>.bicls-1{fill:#0047c0}</style></defs><path class="bicls-1" d="M22.72 33.41h38.27v1H22.72zM22.72 38.02h38.27v1H22.72zM22.72 28.8h21.87v1H22.72zM52.35 60h3.5v3h-28v-3h3.5v-1h-8v1h3.5v4h30v-4h3.5v-1h-8v1z"/><path class="bicls-1" d="M76.32 44.32L70 28.4v-7.08h-3.6v-6.91h-5.17V7.5H22.48v6.91H17.3v6.91H14v7.09l-6.61 15.9a.41.41 0 000 .19V76h69V44.5a.52.52 0 00-.07-.18zM23.48 8.5h36.75v5.91H23.48zm-5.18 6.91h47.1v5.91H18.3zM69 22.32V45H56.1v5h-29v-5H15V22.32zM75.35 75h-67V46H26.1v5h31v-5h18.25z"/></svg>