<?xml version="1.0" encoding="utf-8"?><svg id="bkstudents_01" xmlns="http://www.w3.org/2000/svg" viewBox="0 0 84 84" width="84" height="84"><defs><style>.bkcls-1{fill:#0047c0}</style></defs><path class="bkcls-1" d="M39.56 31.1H54.5v1H39.56zM39.56 26.83H54.5v1H39.56zM13.4 54.32H41v1H13.4zM39.56 22.56h8.54v1h-8.54zM36.32 13.49H12.9V39h23.42zM32.5 38h-16v-2.2c0-3.1 3.59-5.62 8-5.62s8 2.52 8 5.62zm2.82 0H33.5v-2.2c0-3.65-4-6.62-9-6.62s-9 3-9 6.62V38h-1.6V14.49h21.42zM12.9 42.49h23.42V49H12.9zM44.8 54.09A13.3 13.3 0 1058.09 40.8 13.29 13.29 0 0044.8 54.09zm25.59 0a12.3 12.3 0 11-12.3-12.29 12.32 12.32 0 0112.3 12.29z"/><path class="bkcls-1" d="M78.61 71l-6.75-6.8A17.06 17.06 0 0065 38.46V7H7v70h58v-7.28a16.26 16.26 0 002.46-1.34l6.86 6.87A3 3 0 0078.61 71zm-4.42-16.91A16.1 16.1 0 1158.09 38a16.12 16.12 0 0116.1 16.09zM64 76H8V8h56v30.07a17.05 17.05 0 00-21.91 22H13.4v1h29.09a17.15 17.15 0 003.16 4.74H13.4v1h33.28A17 17 0 0064 70.12zm13.9-1.46a2 2 0 01-2.87 0l-6.74-6.75a17.33 17.33 0 003-2.78l6.65 6.65a2 2 0 01-.04 2.88z"/><path class="bkcls-1" d="M24.16 28.14a4.92 4.92 0 10-4.92-4.92 4.93 4.93 0 004.92 4.92zm0-8.84a3.92 3.92 0 11-3.92 3.92 3.93 3.93 0 013.92-3.92z"/></svg>