<?xml version="1.0" encoding="utf-8"?><svg id="bbstudents_01" xmlns="http://www.w3.org/2000/svg" viewBox="0 0 84 84" width="84" height="84"><defs><style>.bbcls-1{fill:#0047c0}</style></defs><path class="bbcls-1" d="M71.71 46.38A30.8 30.8 0 1059.5 66.19a12 12 0 0015.62-11.44 11.93 11.93 0 00-3.41-8.37zM39.26 11.71a33.7 33.7 0 00-12.2 14.17H16a29.76 29.76 0 0123.26-14.17zM15.41 26.88h11.21a37.89 37.89 0 00-2.74 14H11.64a29.47 29.47 0 013.77-14zm-3.77 15h12.25a37.75 37.75 0 002.69 14H15.41a29.53 29.53 0 01-3.77-14zm4.35 15H27A32.87 32.87 0 0039 71a29.76 29.76 0 01-23-14.12zM40.88 71A31.74 31.74 0 0128.1 56.88h12.78zm0-15.1H27.66a36.62 36.62 0 01-2.77-14h16zm0-15h-16a36.54 36.54 0 012.84-14h13.16zm0-15H28.17A33.1 33.1 0 0140.66 12l.22-.14zm29.94 19.65a12 12 0 00-12.42-1.83q0-.9.06-1.83h12.65a29.62 29.62 0 01-.29 3.66zm.29-4.67H58.5a37.72 37.72 0 00-2.75-14h11.59a29.47 29.47 0 013.77 14zm-4.35-15H55.32a33.74 33.74 0 00-12.26-14.2 29.76 29.76 0 0123.7 14.2zM41.88 12.09a33.06 33.06 0 0112.33 13.79H41.88zm0 14.79h12.78a36.54 36.54 0 012.84 14H41.88zm0 15h15.61c0 .79-.05 1.57-.1 2.32a12 12 0 00-6.27 10.55c0 .38 0 .75.06 1.13h-9.3zm0 15h9.44a12 12 0 001.14 3.36 31.8 31.8 0 01-10.58 10.52zm16.5 8.89a29.57 29.57 0 01-15.09 5.29A32.92 32.92 0 0053 61.22a12 12 0 005.35 4.55zm5.74-5.27l-.07.09h-1.93v-7.65h2zm0-9.5h-2v-2.5h2z"/></svg>