<?xml version="1.0" encoding="utf-8"?><svg id="bmstudents_01" xmlns="http://www.w3.org/2000/svg" viewBox="0 0 84 84" width="84" height="84"><defs><style>.bmcls-1{fill:#0047c0}</style></defs><path class="bmcls-1" d="M63.52 31.79l6.68-13.22-7.53-3.8L56 28zm-.41-15.68L68.86 19l-5.78 11.44-5.75-2.9z"/><path class="bmcls-1" d="M77 51h-2.12V40.63 32.26a2.51 2.51 0 00-2.5-2.5h-.69l4.08-8.09a4.4 4.4 0 00.23-3.43 4.47 4.47 0 00-2.24-2.62l-15-7.55-.76-.48-7.41-3.69a4.5 4.5 0 00-6.05 2L32.48 29.76H11a2.5 2.5 0 00-2.5 2.5V73a4.51 4.51 0 004.5 4.5h57.38a4.51 4.51 0 004.5-4.5V62.63H77zM58.39 9l15 7.56a3.5 3.5 0 011.54 4.7l-7.58 14.87H44.66zm-.89-.45l-14 27.62h-4.79l14.94-29.6zM45.44 6.34a3.47 3.47 0 013.12-1.92 3.52 3.52 0 011.58.37l2.62 1.33-15.17 30h-7.21zM73.88 73a3.51 3.51 0 01-3.5 3.5H13A3.5 3.5 0 019.51 73V40.63a3.5 3.5 0 013.5-3.5h57.37a3.51 3.51 0 013.5 3.5V51h-4.94a2.51 2.51 0 00-2.5 2.5v6.63a2.5 2.5 0 002.5 2.5h4.94zM76 61.63h-7.06a1.5 1.5 0 01-1.5-1.5V53.5a1.5 1.5 0 011.5-1.5H76z"/></svg>