<?xml version="1.0" encoding="utf-8"?><svg id="aystudents_01" xmlns="http://www.w3.org/2000/svg" viewBox="0 0 84 84" width="84" height="84"><defs><style>.aycls-1{fill:#0047c0}</style></defs><path class="aycls-1" d="M23.23 19.27h35.53v1H23.23zM23.23 13.81h12.98v1H23.23zM23.23 24.73h35.53v1H23.23zM22.68 52.14H46.5v1H22.68zM22.68 57.55H46.5v1H22.68z"/><path class="aycls-1" d="M74.05 8.44c-.12-.12-.25-.22-.38-.33a4.46 4.46 0 00-.42-.34h-.07A4.83 4.83 0 0071.43 7a5.81 5.81 0 00-.85-.1H22.72a5.16 5.16 0 00-5.15 5.1v29.48h-10v36h54.04v-9.62h10.84v-42.8h-6.27v-6.35h9.32V12a5.13 5.13 0 00-1.45-3.56zM18.57 12a4.15 4.15 0 014.15-4.16h44.6A5.15 5.15 0 0065.18 12v47.18h-3.57v-17.7H46.73V30.82H22.45v10.66h-3.88zm27.16 29.48H23.45v-9.66h22.28zm14.88 35h-52v-34h13.84v3.05h1v-3.05h22.28v3.05h1v-3.05h13.88zm10.84-50.42v40.8h-9.84v-6.68h4.57V26.06z"/></svg>