<?xml version="1.0" encoding="utf-8"?><svg width="36" height="36" fill="none" xmlns="http://www.w3.org/2000/svg" viewBox="0 0 36 36"><path d="M24.43 13.657c-.529-2.47-2.91-5.027-6.35-5.291-3.35-.265-6.437 1.852-7.496 5.027-.97 3.086.353 6.173 2.205 7.496.088-.088.088-.177.177-.265.529-.705.97-1.499 1.499-2.205.617-.793 1.41-1.146 2.38-1.058.265 0 .442-.088.53-.264.794-1.147 1.587-2.382 2.381-3.528.794-1.147 2.029-1.588 3.263-1.147.618.265 1.059.706 1.411 1.235zM18.433 3.78V2.016c0-.617-.352-.97-.882-.97-.529 0-.881.44-.881.97v3.528c0 .617.352.97.881.97.53 0 .882-.441.882-.97V3.78zm-12.7 11.817h1.765c.617 0 1.058-.352 1.058-.882 0-.529-.441-.881-.97-.881h-3.44c-.617 0-1.058.352-1.058.881 0 .53.441.882 1.058.882h1.588zm5.645-8.113c0-.088-.088-.353-.264-.53l-2.47-2.469a.953.953 0 00-.617-.264c-.353-.088-.706.176-.882.44-.176.353-.176.706.176 1.059.618.617 1.235 1.235 1.764 1.852.265.265.53.53.794.706.264.264.617.264.97.176.353-.176.529-.441.529-.97zm13.317 1.058c.088-.088.353-.176.617-.353l2.381-2.38.088-.089a.853.853 0 000-1.235.853.853 0 00-1.234 0l-1.852 1.852-.794.794c-.264.265-.264.617-.088.97.088.265.353.441.882.441zm4.586 7.055h1.675c.618 0 1.059-.352 1.059-.882 0-.529-.441-.881-.97-.881h-3.44c-.617 0-1.058.352-1.058.881 0 .53.44.882 1.058.882h1.676zM3.706 31.912l-.089-.088c-.617-.353-.705-.882-.352-1.41.44-.53.793-1.06 1.234-1.676 1.323-1.852 2.734-3.616 4.057-5.468.176-.177.353-.353.53-.441.352-.177.793-.088 1.057.353.53.705 1.059 1.41 1.588 2.028.088.088.088.176.176.264.088-.088.177-.176.177-.264l3.704-5.556c.352-.441.793-.706 1.234-.441.177.088.353.265.53.53 2.204 3.35 4.41 6.613 6.614 9.965.44.705.97 1.41 1.41 2.204H3.707z" fill="#004ABA"/><path d="M27.693 31.913c-2.645-3.969-5.291-8.026-7.937-11.994-.264-.441-.529-.882-.882-1.235-.176-.176-.176-.353 0-.53.794-1.146 1.5-2.292 2.293-3.439.53-.793 1.235-.793 1.764 0 3.087 4.586 6.173 9.084 9.348 13.67.441.617.794 1.146 1.235 1.764.176.264.264.44.44.705v.441l-.705.706c-1.852-.088-3.704-.088-5.556-.088z" fill="#004ABA"/><path d="M24.43 13.657c-.353-.529-.794-.97-1.411-1.146-1.235-.441-2.557 0-3.263 1.146-.794 1.147-1.587 2.381-2.381 3.528-.177.176-.265.264-.53.264-.97-.088-1.763.265-2.38 1.059-.53.705-.97 1.499-1.5 2.204-.088.089-.088.177-.176.265-1.764-1.411-3.087-4.41-2.205-7.496.97-3.175 4.057-5.292 7.408-5.115 3.528.264 5.909 2.822 6.438 5.291zM18.433 3.78v1.676c0 .617-.353.97-.882.97s-.882-.441-.882-.97V1.928c0-.617.353-.97.882-.97.53 0 .882.441.882.97V3.78zM5.734 15.597H4.058c-.617 0-1.058-.353-1.058-.882 0-.53.44-.882 1.058-.882h3.44c.617 0 .97.353.97.882 0 .53-.441.882-1.058.882H5.734zM11.378 7.484c0 .529-.176.793-.53.97-.352.176-.616.088-.97-.177-.264-.176-.528-.44-.793-.705-.617-.617-1.146-1.235-1.764-1.852-.352-.353-.352-.706-.176-1.058.176-.353.53-.53.882-.441.176 0 .44.176.617.264l2.47 2.47c.176.176.264.44.264.529zM24.695 8.541c-.53 0-.794-.176-.97-.529-.177-.353-.088-.705.088-.97l.794-.794 1.852-1.852a.853.853 0 011.234 0 .853.853 0 010 1.235l-.088.088L25.224 8.1c-.088.265-.353.353-.53.441zM29.28 15.597h-1.675c-.617 0-1.058-.353-1.058-.882 0-.53.44-.882 1.058-.882h3.44c.617 0 .97.353.97.882 0 .53-.441.882-1.059.882h-1.675z" fill="#004ABA"/></svg>