<?xml version="1.0" encoding="utf-8"?><svg width="30" height="34" fill="none" xmlns="http://www.w3.org/2000/svg" viewBox="0 0 30 34"><path d="M29.252 22.247l-.498-1.931-4.073 1.091-2.326-1.343 2.16-.587-.498-1.931-4.072 1.091-2.909-1.679 2.909-1.679 4.072 1.091.498-1.93-2.16-.588 2.326-1.343 4.072 1.091.5-1.93-2.162-.588L30 9.402l-.997-1.679-2.909 1.68.582-2.183-1.911-.504-1.08 4.114-2.328 1.343.582-2.183-1.911-.504-1.08 4.114-2.91 1.679v-3.526l2.992-3.022-1.412-1.427-1.58 1.595V6.212L19.03 3.19l-1.412-1.427-1.58 1.595V0h-1.994v3.442l-1.579-1.595-1.412 1.427 2.991 3.022v2.77l-1.579-1.594-1.412 1.427 2.991 3.022v3.442l-2.908-1.68L9.972 9.32l-1.911.503.582 2.183-2.327-1.343-1.08-4.114-1.912.504.582 2.183-2.909-1.68L0 9.236l2.909 1.679-2.161.587.499 1.931 4.072-1.091 2.326 1.343-2.16.588.498 1.93 4.072-1.09 2.909 1.678-2.909 1.68-4.072-1.092-.498 1.93 2.16.588L5.32 21.24l-4.072-1.09-.5 1.93 2.162.588L0 24.346l.997 1.679 2.909-1.68-.582 2.351 1.911.504 1.08-4.114 2.328-1.343-.582 2.183 1.911.504 1.08-4.114 2.91-1.679v3.442l-2.992 3.022 1.412 1.427 1.58-1.595v2.77l-2.992 3.023 1.412 1.427 1.58-1.595V34h1.994v-3.442l1.579 1.595 1.412-1.427-2.991-3.022v-2.77l1.579 1.594 1.412-1.427-2.991-3.022v-3.442l2.908 1.679 1.08 4.114 1.912-.504-.582-2.183 2.327 1.343 1.08 4.114 1.912-.504-.582-2.182 2.909 1.679.997-1.68-2.909-1.678 2.244-.588z" fill="#004ABA"/></svg>