<?xml version="1.0" encoding="utf-8"?><svg width="30" height="22" fill="none" xmlns="http://www.w3.org/2000/svg" viewBox="0 0 30 22"><path d="M15.119 9.174V5.521h-1.665l.079-3.572H9.964l-.08 3.572H6.396l.08-3.572H2.906l-.08 3.572H.766v3.653h1.903l-.159 3.653H.765v3.654H2.43l-.08 3.49h3.57l.079-3.572h3.569l-.08 3.572h3.569l.08-3.572h2.061v-3.653h-1.903l.159-3.653h1.665v.081zm-5.472 3.653h-3.49l.16-3.653h3.568l-.238 3.653zM26.46 18.347V0h-6.424v3.653h2.855v14.694h-2.855V22h9.2v-3.653H26.46z" fill="#004ABA"/></svg>