<?xml version="1.0" encoding="utf-8"?><svg width="22" height="28" fill="none" xmlns="http://www.w3.org/2000/svg" viewBox="0 0 22 28"><path d="M12.2.955c-.8-1.273-1.6-1.273-2.4 0C6.28 6.205.92 14.079.92 17.977c0 2.784 1.12 5.25 2.96 7.08C5.72 26.887 8.2 28 11 28s5.28-1.114 7.12-2.943c1.84-1.83 2.96-4.296 2.96-7.08C21.08 14 15.72 6.205 12.2.955zm6.08 21.477a8.284 8.284 0 01-3.04 2.943c-.56.318-1.28.16-1.6-.477-.4-.637-.16-1.352.48-1.67.88-.478 1.6-1.194 2.16-2.069s.88-1.83.88-2.863c.08-.716.56-1.194 1.28-1.114.72.08 1.2.557 1.12 1.273-.08 1.431-.56 2.784-1.28 3.977z" fill="#004ABA"/></svg>