<?xml version="1.0" encoding="utf-8"?><svg width="36" height="36" fill="none" xmlns="http://www.w3.org/2000/svg" viewBox="0 0 36 36"><path d="M33.144 7.559h-1.212a5.518 5.518 0 00-6.23-4.5c-2.596.433-4.587 2.683-4.587 5.365a7.94 7.94 0 007.962 7.962h2.942V9.29h1.125c.519 0 .865-.433.865-.866 0-.432-.433-.865-.865-.865zm-5.02 1.211a.867.867 0 01-.865-.865c0-.433.433-.865.866-.865.519 0 .865.432.865.865 0 .52-.433.865-.865.865zM25.269 17.338c-.086.865-.346 1.644-.606 2.423-1.47 3.72-4.76 6.317-8.74 6.923l-1.99.346c1.385.865 2.942 1.47 4.586 1.817l.78 2.423h-.26a.867.867 0 00-.866.865c0 .52.433.866.866.866h8.047c.52 0 .866-.433.866-.866a.867.867 0 00-.866-.865h-1.903l-.952-2.942c4.413-1.558 7.442-5.538 7.788-10.211h-2.856a9.78 9.78 0 01-3.894-.78zm-4.067 13.845l-.779-2.25c.692 0 1.385-.086 2.077-.172l.865 2.51h-2.163v-.088z" fill="#004ABA"/><path d="M23.019 19.068c.346-.866.52-1.73.606-2.683-1.818-1.211-3.116-2.942-3.808-5.019a16.809 16.809 0 01-8.307 7.183l-6.058 2.423c-2.077.865-3.461 2.855-3.461 5.105 0 .52.433.865.865.865h.173l12.634-1.99c3.289-.519 6.144-2.769 7.356-5.884z" fill="#004ABA"/></svg>