<?xml version="1.0" encoding="utf-8"?><svg width="24" height="22" fill="none" xmlns="http://www.w3.org/2000/svg" viewBox="0 0 24 22"><path fill-rule="evenodd" clip-rule="evenodd" d="M16.82 16.554a9.371 9.371 0 01-6.516 2.618c-5.17 0-9.363-4.158-9.363-9.286C.941 4.757 5.133.6 10.304.6c5.17 0 9.362 4.157 9.362 9.286a9.194 9.194 0 01-1.792 5.465l5.204 4.947-1.16 1.102-5.098-4.846zm1.246-6.668c0 4.232-3.463 7.686-7.762 7.686-4.3 0-7.763-3.454-7.763-7.686 0-4.233 3.463-7.686 7.763-7.686s7.762 3.453 7.762 7.686z" fill="#031B4B"/></svg>