<?xml version="1.0" encoding="utf-8"?><svg viewBox="0 0 44 52" xmlns="http://www.w3.org/2000/svg" xmlns:xlink="http://www.w3.org/1999/xlink"><style>:root>svg{display:none}:root>svg:target{display:block}</style><svg fill="none" viewBox="0 0 16 16" id="ads__arrow" xmlns="http://www.w3.org/2000/svg"><path fill-rule="evenodd" clip-rule="evenodd" d="M8 16A8 8 0 108 0a8 8 0 000 16zM5.868 4.798L9.07 8l-3.202 3.202.707.707 3.556-3.555.354-.354-.354-.354-3.556-3.555-.707.707z" fill="#AF8F46"/></svg><svg fill="none" viewBox="0 0 24 24" id="declaration__item__soc__item__tg" xmlns="http://www.w3.org/2000/svg"><path fill-rule="evenodd" clip-rule="evenodd" d="M12 24c6.627 0 12-5.373 12-12S18.627 0 12 0 0 5.373 0 12s5.373 12 12 12zm-.125-15.335c-1.164.495-3.49 1.518-6.98 3.07-.567.23-.864.456-.891.676-.046.372.41.518 1.032.718l.262.085c.61.202 1.433.44 1.86.45.388.008.82-.155 1.298-.49 3.26-2.248 4.944-3.383 5.05-3.408.074-.017.178-.039.248.025.07.063.063.183.055.216-.045.196-1.836 1.896-2.762 2.776-.29.274-.494.469-.536.513-.094.1-.19.194-.282.284-.567.56-.993.978.024 1.663.489.329.88.6 1.27.872.426.296.851.592 1.401.96.14.094.274.191.405.286.496.361.941.685 1.492.634.32-.03.65-.338.818-1.254.396-2.164 1.176-6.854 1.356-8.787a2.202 2.202 0 00-.02-.48.52.52 0 00-.17-.332c-.144-.119-.365-.144-.464-.142-.45.008-1.141.253-4.466 1.665z" fill="#739FF3"/><path fill-rule="evenodd" clip-rule="evenodd" d="M12 24c6.627 0 12-5.373 12-12S18.627 0 12 0 0 5.373 0 12s5.373 12 12 12zm-.125-15.335c-1.164.495-3.49 1.518-6.98 3.07-.567.23-.864.456-.891.676-.046.372.41.518 1.032.718l.262.085c.61.202 1.433.44 1.86.45.388.008.82-.155 1.298-.49 3.26-2.248 4.944-3.383 5.05-3.408.074-.017.178-.039.248.025.07.063.063.183.055.216-.045.196-1.836 1.896-2.762 2.776-.29.274-.494.469-.536.513-.094.1-.19.194-.282.284-.567.56-.993.978.024 1.663.489.329.88.6 1.27.872.426.296.851.592 1.401.96.14.094.274.191.405.286.496.361.941.685 1.492.634.32-.03.65-.338.818-1.254.396-2.164 1.176-6.854 1.356-8.787a2.202 2.202 0 00-.02-.48.52.52 0 00-.17-.332c-.144-.119-.365-.144-.464-.142-.45.008-1.141.253-4.466 1.665z" fill="#0A50BA" fill-opacity=".2"/></svg><svg fill="none" viewBox="0 0 24 24" id="declaration__item__soc__item__tg__vk" xmlns="http://www.w3.org/2000/svg"><path fill-rule="evenodd" clip-rule="evenodd" d="M12 24c6.627 0 12-5.373 12-12S18.627 0 12 0 0 5.373 0 12s5.373 12 12 12zm.624-7C7.841 17 5.113 13.622 5 8h2.396c.079 4.126 1.845 5.874 3.244 6.234V8h2.257v3.559c1.381-.154 2.833-1.775 3.322-3.559h2.256c-.376 2.198-1.95 3.82-3.069 4.486 1.12.541 2.912 1.955 3.594 4.514h-2.483c-.534-1.712-1.863-3.036-3.62-3.216V17h-.272z" fill="#739FF3"/><path fill-rule="evenodd" clip-rule="evenodd" d="M12 24c6.627 0 12-5.373 12-12S18.627 0 12 0 0 5.373 0 12s5.373 12 12 12zm.624-7C7.841 17 5.113 13.622 5 8h2.396c.079 4.126 1.845 5.874 3.244 6.234V8h2.257v3.559c1.381-.154 2.833-1.775 3.322-3.559h2.256c-.376 2.198-1.95 3.82-3.069 4.486 1.12.541 2.912 1.955 3.594 4.514h-2.483c-.534-1.712-1.863-3.036-3.62-3.216V17h-.272z" fill="#0A50BA" fill-opacity=".2"/></svg><svg fill="none" viewBox="0 0 16 16" id="editor__link__2" xmlns="http://www.w3.org/2000/svg"><path fill-rule="evenodd" clip-rule="evenodd" d="M8 16A8 8 0 108 0a8 8 0 000 16zM5.868 4.798L9.07 8l-3.202 3.202.707.707 3.556-3.555.354-.354-.354-.354-3.556-3.555-.707.707z" fill="#104CA6"/></svg><svg fill="none" viewBox="0 0 16 16" id="editor__link__people" xmlns="http://www.w3.org/2000/svg"><path fill-rule="evenodd" clip-rule="evenodd" d="M8 16A8 8 0 108 0a8 8 0 000 16zM5.868 4.798L9.07 8l-3.202 3.202.707.707 3.556-3.555.354-.354-.354-.354-3.556-3.555-.707.707z" fill="#AF8F46"/></svg><svg fill="none" viewBox="0 0 16 16" id="editor__link__white" xmlns="http://www.w3.org/2000/svg"><path fill-rule="evenodd" clip-rule="evenodd" d="M8 16A8 8 0 108 0a8 8 0 000 16zM5.869 4.798L9.07 8l-3.202 3.202.707.707 3.555-3.555.354-.354-.354-.354-3.555-3.555-.707.707z" fill="#fff"/></svg><svg fill="none" viewBox="0 0 44 44" id="education__button__hover" xmlns="http://www.w3.org/2000/svg"><mask id="ga" fill="#fff"><path fill-rule="evenodd" clip-rule="evenodd" d="M22 44c12.15 0 22-9.85 22-22S34.15 0 22 0 0 9.85 0 22s9.85 22 22 22zM8.609 22.956h20.585l-8.858 8.859 1.415 1.414 10.521-10.522.707-.707-.707-.707L21.751 10.77l-1.415 1.414 8.772 8.771h-20.5v2z"/></mask><path fill-rule="evenodd" clip-rule="evenodd" d="M22 44c12.15 0 22-9.85 22-22S34.15 0 22 0 0 9.85 0 22s9.85 22 22 22zM8.609 22.956h20.585l-8.858 8.859 1.415 1.414 10.521-10.522.707-.707-.707-.707L21.751 10.77l-1.415 1.414 8.772 8.771h-20.5v2z" fill="#fff"/><path d="M29.195 22.956l1.414 1.415 3.414-3.415h-4.829v2zm-20.586 0h-2v2h2v-2zm11.727 8.859L18.922 30.4l-1.414 1.415 1.414 1.414 1.414-1.414zm1.415 1.414l-1.415 1.414 1.415 1.414 1.414-1.414-1.414-1.414zm10.521-10.522l1.415 1.414-1.415-1.414zM32.98 22l1.415 1.414L35.808 22l-1.414-1.414L32.979 22zm-.707-.707l1.415-1.414-1.415 1.414zM21.751 10.77l1.414-1.414-1.414-1.414-1.415 1.414 1.415 1.414zm-1.415 1.414l-1.414-1.414-1.414 1.414 1.414 1.415 1.414-1.415zm8.772 8.771v2h4.828l-3.414-3.414-1.414 1.414zm-20.5 0v-2h-2v2h2zM42 22c0 11.046-8.954 20-20 20v4c13.255 0 24-10.745 24-24h-4zM22 2c11.046 0 20 8.954 20 20h4C46 8.745 35.255-2 22-2v4zM2 22C2 10.954 10.954 2 22 2v-4C8.745-2-2 8.745-2 22h4zm20 20C10.954 42 2 33.046 2 22h-4c0 13.255 10.745 24 24 24v-4zm7.195-21.044H8.609v4h20.586v-4zM21.75 33.23l8.858-8.858-2.829-2.829-8.858 8.858 2.829 2.829zm1.414-1.414L21.75 30.4l-2.829 2.829 1.414 1.414 2.829-2.828zm7.693-10.522L20.336 31.815l2.829 2.828 10.522-10.522-2.829-2.828zm.707-.707l-.707.707 2.829 2.828.707-.707-2.829-2.828zm-.707 2.121l.707.707 2.829-2.828-.707-.707-2.829 2.828zM20.336 12.185l10.522 10.522 2.829-2.828L23.165 9.357l-2.829 2.828zm1.415 1.415l1.414-1.415-2.829-2.828-1.414 1.414 2.829 2.829zm8.77 5.942l-8.77-8.77-2.829 2.828 8.771 8.77 2.829-2.828zM8.61 22.956h20.498v-4H8.61v4zm2 0v-2h-4v2h4z" fill="#fff" mask="url(#ga)"/></svg><svg fill="none" viewBox="0 0 44 44" id="education__item__desc__button" xmlns="http://www.w3.org/2000/svg"><path fill-rule="evenodd" clip-rule="evenodd" d="M22 42c11.046 0 20-8.954 20-20S33.046 2 22 2 2 10.954 2 22s8.954 20 20 20zm0 2c12.15 0 22-9.85 22-22S34.15 0 22 0 0 9.85 0 22s9.85 22 22 22zm7.195-21.044H8.609v-2h20.498l-8.77-8.77 1.414-1.415 10.521 10.522.707.707-.707.707L21.751 33.23l-1.415-1.414 8.859-8.859z" fill="#fff"/></svg><svg fill="none" viewBox="0 0 24 24" id="followSoc__item__tg" xmlns="http://www.w3.org/2000/svg"><path fill-rule="evenodd" clip-rule="evenodd" d="M12 24c6.627 0 12-5.373 12-12S18.627 0 12 0 0 5.373 0 12s5.373 12 12 12zm-.125-15.335c-1.164.495-3.49 1.518-6.98 3.07-.567.23-.864.456-.891.676-.046.372.41.518 1.032.718l.262.085c.61.202 1.433.44 1.86.45.388.008.82-.155 1.298-.49 3.26-2.248 4.944-3.383 5.05-3.408.074-.017.178-.039.248.025.07.063.063.183.055.216-.045.196-1.836 1.896-2.762 2.776-.29.274-.494.469-.536.513-.094.1-.19.194-.282.284-.567.56-.993.978.024 1.663.489.329.88.6 1.27.872.426.296.851.592 1.401.96.14.094.274.191.405.286.496.361.941.685 1.492.634.32-.03.65-.338.818-1.254.396-2.164 1.176-6.854 1.356-8.787a2.202 2.202 0 00-.02-.48.52.52 0 00-.17-.332c-.144-.119-.365-.144-.464-.142-.45.008-1.141.253-4.466 1.665z" fill="#104CA6"/></svg><svg fill="none" viewBox="0 0 24 24" id="followSoc__item__ut" xmlns="http://www.w3.org/2000/svg"><path fill-rule="evenodd" clip-rule="evenodd" d="M12 24c6.627 0 12-5.373 12-12S18.627 0 12 0 0 5.373 0 12s5.373 12 12 12zm6.304-16.062c.421.424.558 1.39.558 1.39s.14 1.134.14 2.266v1.06c0 1.136-.14 2.268-.14 2.268s-.137.965-.558 1.389c-.48.502-1.012.554-1.313.584a4.398 4.398 0 00-.09.009c-1.958.14-4.9.145-4.9.145s-3.64-.033-4.76-.14c-.055-.01-.121-.018-.197-.027-.355-.044-.908-.111-1.348-.571-.419-.424-.555-1.39-.555-1.39S5 13.788 5 12.656v-1.061c0-1.132.142-2.267.142-2.267s.134-.965.555-1.389c.48-.503 1.012-.555 1.313-.584l.09-.01c1.958-.142 4.897-.142 4.897-.142h.006s2.94 0 4.897.143l.09.01c.3.028.832.08 1.313.583zm-7.75 2.07v3.935l3.782-1.96-3.781-1.975z" fill="#104CA6"/></svg><svg fill="none" viewBox="0 0 24 24" id="followSoc__item__vk" xmlns="http://www.w3.org/2000/svg"><path fill-rule="evenodd" clip-rule="evenodd" d="M12 24c6.627 0 12-5.373 12-12S18.627 0 12 0 0 5.373 0 12s5.373 12 12 12zm.624-7C7.841 17 5.113 13.622 5 8h2.396c.079 4.126 1.845 5.874 3.244 6.234V8h2.257v3.559c1.381-.154 2.833-1.775 3.322-3.559h2.256c-.376 2.198-1.95 3.82-3.069 4.486 1.12.541 2.912 1.955 3.594 4.514h-2.483c-.534-1.712-1.863-3.036-3.62-3.216V17h-.272z" fill="#104CA6"/></svg><svg fill="none" viewBox="0 0 40 40" id="header__other__search" xmlns="http://www.w3.org/2000/svg"><path fill-rule="evenodd" clip-rule="evenodd" d="M27.274 26.942a11.714 11.714 0 01-8.145 3.273c-6.464 0-11.703-5.197-11.703-11.607C7.426 12.197 12.666 7 19.129 7c6.463 0 11.703 5.197 11.703 11.608 0 2.553-.832 4.914-2.24 6.831l6.505 6.184L33.647 33l-6.373-6.058zm1.558-8.334c0 5.29-4.329 9.607-9.703 9.607-5.375 0-9.703-4.317-9.703-9.607C9.426 13.317 13.755 9 19.129 9s9.703 4.317 9.703 9.608z" fill="#fff"/></svg><svg fill="none" viewBox="0 0 12 12" id="home" xmlns="http://www.w3.org/2000/svg"><mask id="ma" fill="#fff"><path d="M0 4.941L6 0l6 4.941V12H8.25V9.176c0-.561-.237-1.1-.659-1.497A2.323 2.323 0 006 7.06c-.597 0-1.169.223-1.591.62a2.056 2.056 0 00-.659 1.497V12H0V4.941z"/></mask><path d="M6 0l.636-.772a1 1 0 00-1.272 0L6 0zM0 4.941l-.636-.772A1 1 0 00-1 4.941h1zm12 0h1a1 1 0 00-.364-.772L12 4.941zM12 12v1a1 1 0 001-1h-1zm-3.75 0h-1a1 1 0 001 1v-1zm-.659-4.32l.685-.73-.685.73zM3.75 12v1a1 1 0 001-1h-1zM0 12h-1a1 1 0 001 1v-1zM5.364-.772l-6 4.941L.636 5.713l6-4.941L5.364-.772zm7.272 4.941l-6-4.94L5.364.771l6 4.941 1.272-1.544zM11 4.941V12h2V4.941h-2zM12 11H8.25v2H12v-2zm-2.75 1V9.176h-2V12h2zm0-2.824c0-.847-.358-1.646-.974-2.225l-1.37 1.456c.228.215.344.493.344.77h2zm-.974-2.225A3.323 3.323 0 006 6.059v2c.35 0 .675.131.906.348l1.37-1.456zM6 6.059c-.843 0-1.663.314-2.276.892l1.37 1.456c.23-.217.556-.348.906-.348v-2zm-2.276.892a3.056 3.056 0 00-.974 2.225h2c0-.276.116-.554.344-.769l-1.37-1.456zM2.75 9.176V12h2V9.176h-2zm1 1.824H0v2h3.75v-2zM1 12V4.941h-2V12h2z" fill="#104CA6" mask="url(#ma)"/></svg><svg fill="none" viewBox="0 0 24 17" id="humb" xmlns="http://www.w3.org/2000/svg"><path d="M1 16h22M1 1h22M1 8.5h22" stroke="#fff" stroke-width="2" stroke-linecap="square"/></svg><svg fill="none" viewBox="0 0 40 52" id="logo" xmlns="http://www.w3.org/2000/svg"><path fill-rule="evenodd" clip-rule="evenodd" d="M20.4 2.4h-.2c-.2-.1-.3-.1-.4-.2l.6-.4.6.4c-.1.1-.3.1-.4.2h-.2zM19.2.9c0 .1-.1.8.5 1.2l.2-.7-.7-.5zm2.4 0l-.7.5.2.7c.5-.4.5-1 .5-1.2zm.9 16.6c0-.9-.5-1.6-1.2-1.9l-.1-.1c-.3-.1-.3-.5-.3-.5l.6-1.5c-.1-.4-.5-.5-.5-.5v-.4s.4-.5.3-1.2c0-.1-.5-7.2-.6-8 .2-.1.3-.3.3-.5v-.2c1.5-.8.8-2.2.5-2.4l-.1.1c.1 0 .2.2.3.4h-.9l-.4-.8-.3.9h-.9c.1-.2.2-.4.3-.4l-.1-.1c-.3.2-1.1 1.5.5 2.4V3c0 .2.1.4.3.5-.1.7-.6 7.9-.6 8-.1.7.2 1.2.2 1.2v.3s-.4.1-.5.5l.6 1.5s0 .4-.3.5c-.8.3-1.4 1.1-1.4 2v1.7h-.9v2.7h6.1v-2.7h-.9v-1.7zm-.8 29.1h1V23h-1v23.6zm16.5-14.1V50c.6.2 1.2.5 1.8.8V32.5h-1.8zm-3.5 0H32V48c1.8.5 3.6 1 5.3 1.7V30.9h-2.6v1.6zM26.9 47c1.4.2 2.7.4 4 .7v-9.4h-4V47zm-3.3-.3c.8.1 1.5.1 2.3.2V23h-2.3v23.7zM5.4 30.9H2.7v19c1.7-.7 3.5-1.3 5.3-1.7V32.5H5.4v-1.6zm3.7 17c1.4-.3 2.8-.6 4.3-.8v-8.8H9.1v9.6zM0 51.1c.6-.3 1.2-.6 1.8-.8V32.5H0v18.6zm19.9-4.6h1V23h-1v23.5zm-5.4-9.3v9.7c.9-.1 1.7-.2 2.6-.3V23h-2.6v14.2zm3.5 9.4h1V23h-1v23.6z" fill="#fff"/></svg><svg fill="none" viewBox="0 0 11 18" id="pagination__arrow" xmlns="http://www.w3.org/2000/svg"><path d="M1 17l8-7.908L1 1" stroke="#104CA6" stroke-width="1.5"/></svg><svg fill="none" viewBox="0 0 14 8" id="select2-selection__arrow" xmlns="http://www.w3.org/2000/svg"><path d="M1 1l5.931 6L13 1" stroke="#031B4B"/></svg><svg fill="none" viewBox="0 0 24 24" id="tg" xmlns="http://www.w3.org/2000/svg"><path fill-rule="evenodd" clip-rule="evenodd" d="M12 24c6.627 0 12-5.373 12-12S18.627 0 12 0 0 5.373 0 12s5.373 12 12 12zm-.125-15.335c-1.164.495-3.49 1.518-6.98 3.07-.567.23-.864.456-.891.676-.046.372.41.518 1.032.718l.262.085c.61.202 1.433.44 1.86.45.388.008.82-.155 1.298-.49 3.26-2.248 4.944-3.383 5.05-3.408.074-.017.178-.039.248.025.07.063.063.183.055.216-.045.196-1.836 1.896-2.762 2.776-.29.274-.494.469-.536.513-.094.1-.19.194-.282.284-.567.56-.993.978.024 1.663.489.329.88.6 1.27.872.426.296.851.592 1.401.96.14.094.274.191.405.286.496.361.941.685 1.492.634.32-.03.65-.338.818-1.254.396-2.164 1.176-6.854 1.356-8.787a2.202 2.202 0 00-.02-.48.52.52 0 00-.17-.332c-.144-.119-.365-.144-.464-.142-.45.008-1.141.253-4.466 1.665z" fill="#fff"/></svg><svg fill="none" viewBox="0 0 24 24" id="vk" xmlns="http://www.w3.org/2000/svg"><path fill-rule="evenodd" clip-rule="evenodd" d="M12 24c6.627 0 12-5.373 12-12S18.627 0 12 0 0 5.373 0 12s5.373 12 12 12zm.624-7C7.841 17 5.113 13.622 5 8h2.396c.079 4.126 1.845 5.874 3.244 6.234V8h2.257v3.559c1.381-.154 2.833-1.775 3.322-3.559h2.256c-.376 2.198-1.95 3.82-3.069 4.486 1.12.541 2.912 1.955 3.594 4.514h-2.483c-.534-1.712-1.863-3.036-3.62-3.216V17h-.272z" fill="#fff"/></svg><svg fill="none" viewBox="0 0 24 24" id="youtube" xmlns="http://www.w3.org/2000/svg"><path fill-rule="evenodd" clip-rule="evenodd" d="M12 24c6.627 0 12-5.373 12-12S18.627 0 12 0 0 5.373 0 12s5.373 12 12 12zm6.304-16.062c.421.424.558 1.39.558 1.39s.14 1.134.14 2.266v1.06c0 1.136-.14 2.268-.14 2.268s-.137.965-.558 1.389c-.48.502-1.012.554-1.313.584a4.398 4.398 0 00-.09.009c-1.958.14-4.9.145-4.9.145s-3.64-.033-4.76-.14c-.055-.01-.121-.018-.197-.027-.355-.044-.908-.111-1.348-.571-.419-.424-.555-1.39-.555-1.39S5 13.788 5 12.656v-1.061c0-1.132.142-2.267.142-2.267s.134-.965.555-1.389c.48-.503 1.012-.555 1.313-.584l.09-.01c1.958-.142 4.897-.142 4.897-.142h.006s2.94 0 4.897.143l.09.01c.3.028.832.08 1.313.583zm-7.75 2.07v3.935l3.782-1.96-3.781-1.975z" fill="#fff"/></svg></svg>