<?xml version="1.0" encoding="utf-8"?><svg viewBox="0 0 84 84" xmlns="http://www.w3.org/2000/svg" xmlns:xlink="http://www.w3.org/1999/xlink"><style>:root>svg{display:none}:root>svg:target{display:block}</style><svg fill="none" viewBox="0 0 30 24" id="Footershape" xmlns="http://www.w3.org/2000/svg"><path d="M29 12H1m28 0L17.8 23.5M29 12L17.8.5" stroke="#fff" stroke-linecap="round" stroke-linejoin="round"/></svg><svg fill="none" viewBox="0 0 30 24" id="FootershapeBlue" xmlns="http://www.w3.org/2000/svg"><path d="M29 12H1m28 0L17.8 23.5M29 12L17.8.5" stroke="#031B4B" stroke-linecap="round" stroke-linejoin="round"/></svg><svg fill="none" viewBox="0 0 16 16" id="ads__arrow" xmlns="http://www.w3.org/2000/svg"><path fill-rule="evenodd" clip-rule="evenodd" d="M8 16A8 8 0 108 0a8 8 0 000 16zM5.868 4.798L9.07 8l-3.202 3.202.707.707 3.556-3.555.354-.354-.354-.354-3.556-3.555-.707.707z" fill="#AF8F46"/></svg><svg fill="none" viewBox="0 0 11 18" id="arrow" xmlns="http://www.w3.org/2000/svg"><path d="M1 17l8-7.908L1 1" stroke="#004ABA" stroke-width="1.5"/></svg><svg fill="none" viewBox="0 0 11 18" id="arrow_1" xmlns="http://www.w3.org/2000/svg"><path d="M10 1L2 8.908 10 17" stroke="#004ABA" stroke-width="1.5"/></svg><svg fill="none" viewBox="0 0 24 15" id="button--up-1" xmlns="http://www.w3.org/2000/svg"><path fill-rule="evenodd" clip-rule="evenodd" d="M0 0v1h24V0H0zm2.334 14.372L12 5.672l9.666 8.7.668-.744-10-9-.334-.3-.335.3-10 9 .67.744z" fill="#031B4B"/></svg><svg fill="none" viewBox="0 0 32 32" id="closed" xmlns="http://www.w3.org/2000/svg"><path fill-rule="evenodd" clip-rule="evenodd" d="M16.794 16.793h9.412v-2h-9.412V6.205h-2v8.588H6.206v2h8.588v9.412h2v-9.412z" fill="#031B4B"/></svg><svg fill="none" viewBox="0 0 22 22" id="date" xmlns="http://www.w3.org/2000/svg"><path d="M21 9.889H1m20 0v8.889C21 20.005 19.88 21 18.5 21h-15C2.12 21 1 20.005 1 18.778V5.444c0-1.227 1.12-2.222 2.5-2.222h15c1.38 0 2.5.995 2.5 2.222V9.89zM14.75 1v4.444M7.25 1v4.444" stroke="#031B4B" stroke-linecap="round" stroke-linejoin="round"/></svg><svg fill="none" viewBox="0 0 24 24" id="declaration__item__soc__item__tg" xmlns="http://www.w3.org/2000/svg"><path fill-rule="evenodd" clip-rule="evenodd" d="M12 24c6.627 0 12-5.373 12-12S18.627 0 12 0 0 5.373 0 12s5.373 12 12 12zm-.125-15.335c-1.164.495-3.49 1.518-6.98 3.07-.567.23-.864.456-.891.676-.046.372.41.518 1.032.718l.262.085c.61.202 1.433.44 1.86.45.388.008.82-.155 1.298-.49 3.26-2.248 4.944-3.383 5.05-3.408.074-.017.178-.039.248.025.07.063.063.183.055.216-.045.196-1.836 1.896-2.762 2.776-.29.274-.494.469-.536.513-.094.1-.19.194-.282.284-.567.56-.993.978.024 1.663.489.329.88.6 1.27.872.426.296.851.592 1.401.96.14.094.274.191.405.286.496.361.941.685 1.492.634.32-.03.65-.338.818-1.254.396-2.164 1.176-6.854 1.356-8.787a2.202 2.202 0 00-.02-.48.52.52 0 00-.17-.332c-.144-.119-.365-.144-.464-.142-.45.008-1.141.253-4.466 1.665z" fill="#739FF3"/><path fill-rule="evenodd" clip-rule="evenodd" d="M12 24c6.627 0 12-5.373 12-12S18.627 0 12 0 0 5.373 0 12s5.373 12 12 12zm-.125-15.335c-1.164.495-3.49 1.518-6.98 3.07-.567.23-.864.456-.891.676-.046.372.41.518 1.032.718l.262.085c.61.202 1.433.44 1.86.45.388.008.82-.155 1.298-.49 3.26-2.248 4.944-3.383 5.05-3.408.074-.017.178-.039.248.025.07.063.063.183.055.216-.045.196-1.836 1.896-2.762 2.776-.29.274-.494.469-.536.513-.094.1-.19.194-.282.284-.567.56-.993.978.024 1.663.489.329.88.6 1.27.872.426.296.851.592 1.401.96.14.094.274.191.405.286.496.361.941.685 1.492.634.32-.03.65-.338.818-1.254.396-2.164 1.176-6.854 1.356-8.787a2.202 2.202 0 00-.02-.48.52.52 0 00-.17-.332c-.144-.119-.365-.144-.464-.142-.45.008-1.141.253-4.466 1.665z" fill="#0A50BA" fill-opacity=".2"/></svg><svg fill="none" viewBox="0 0 24 24" id="declaration__item__soc__item__tg__vk" xmlns="http://www.w3.org/2000/svg"><path fill-rule="evenodd" clip-rule="evenodd" d="M12 24c6.627 0 12-5.373 12-12S18.627 0 12 0 0 5.373 0 12s5.373 12 12 12zm.624-7C7.841 17 5.113 13.622 5 8h2.396c.079 4.126 1.845 5.874 3.244 6.234V8h2.257v3.559c1.381-.154 2.833-1.775 3.322-3.559h2.256c-.376 2.198-1.95 3.82-3.069 4.486 1.12.541 2.912 1.955 3.594 4.514h-2.483c-.534-1.712-1.863-3.036-3.62-3.216V17h-.272z" fill="#739FF3"/><path fill-rule="evenodd" clip-rule="evenodd" d="M12 24c6.627 0 12-5.373 12-12S18.627 0 12 0 0 5.373 0 12s5.373 12 12 12zm.624-7C7.841 17 5.113 13.622 5 8h2.396c.079 4.126 1.845 5.874 3.244 6.234V8h2.257v3.559c1.381-.154 2.833-1.775 3.322-3.559h2.256c-.376 2.198-1.95 3.82-3.069 4.486 1.12.541 2.912 1.955 3.594 4.514h-2.483c-.534-1.712-1.863-3.036-3.62-3.216V17h-.272z" fill="#0A50BA" fill-opacity=".2"/></svg><svg fill="none" viewBox="0 0 16 16" id="download" xmlns="http://www.w3.org/2000/svg"><path fill-rule="evenodd" clip-rule="evenodd" d="M0 8a8 8 0 1016 0A8 8 0 000 8zm4 0l3.293 3.293L8 12l.707-.707L12 8l-.707-.707L8.5 10.086V4h-1v6.086L4.707 7.293 4 8z" fill="#0055B6" fill-opacity=".5"/></svg><svg fill="none" viewBox="0 0 16 16" id="download--2" xmlns="http://www.w3.org/2000/svg"><path fill-rule="evenodd" clip-rule="evenodd" d="M0 8a8 8 0 1016 0A8 8 0 000 8zm4 0l3.293 3.293L8 12l.707-.707L12 8l-.707-.707L8.5 10.086V4h-1v6.086L4.707 7.293 4 8z" fill="#031B4B"/></svg><svg fill="none" viewBox="0 0 16 16" id="editor__link__2" xmlns="http://www.w3.org/2000/svg"><path fill-rule="evenodd" clip-rule="evenodd" d="M8 16A8 8 0 108 0a8 8 0 000 16zM5.868 4.798L9.07 8l-3.202 3.202.707.707 3.556-3.555.354-.354-.354-.354-3.556-3.555-.707.707z" fill="#004ABA"/></svg><svg fill="none" viewBox="0 0 16 16" id="editor__link__people" xmlns="http://www.w3.org/2000/svg"><path fill-rule="evenodd" clip-rule="evenodd" d="M8 16A8 8 0 108 0a8 8 0 000 16zM5.868 4.798L9.07 8l-3.202 3.202.707.707 3.556-3.555.354-.354-.354-.354-3.556-3.555-.707.707z" fill="#AF8F46"/></svg><svg fill="none" viewBox="0 0 16 16" id="editor__link__white" xmlns="http://www.w3.org/2000/svg"><path fill-rule="evenodd" clip-rule="evenodd" d="M8 16A8 8 0 108 0a8 8 0 000 16zM5.869 4.798L9.07 8l-3.202 3.202.707.707 3.555-3.555.354-.354-.354-.354-3.555-3.555-.707.707z" fill="#fff"/></svg><svg fill="none" viewBox="0 0 44 44" id="education__button__hover" xmlns="http://www.w3.org/2000/svg"><mask id="apa" fill="#fff"><path fill-rule="evenodd" clip-rule="evenodd" d="M22 44c12.15 0 22-9.85 22-22S34.15 0 22 0 0 9.85 0 22s9.85 22 22 22zM8.609 22.956h20.585l-8.858 8.859 1.415 1.414 10.521-10.522.707-.707-.707-.707L21.751 10.77l-1.415 1.414 8.772 8.771h-20.5v2z"/></mask><path fill-rule="evenodd" clip-rule="evenodd" d="M22 44c12.15 0 22-9.85 22-22S34.15 0 22 0 0 9.85 0 22s9.85 22 22 22zM8.609 22.956h20.585l-8.858 8.859 1.415 1.414 10.521-10.522.707-.707-.707-.707L21.751 10.77l-1.415 1.414 8.772 8.771h-20.5v2z" fill="#fff"/><path d="M29.195 22.956l1.414 1.415 3.414-3.415h-4.829v2zm-20.586 0h-2v2h2v-2zm11.727 8.859L18.922 30.4l-1.414 1.415 1.414 1.414 1.414-1.414zm1.415 1.414l-1.415 1.414 1.415 1.414 1.414-1.414-1.414-1.414zm10.521-10.522l1.415 1.414-1.415-1.414zM32.98 22l1.415 1.414L35.808 22l-1.414-1.414L32.979 22zm-.707-.707l1.415-1.414-1.415 1.414zM21.751 10.77l1.414-1.414-1.414-1.414-1.415 1.414 1.415 1.414zm-1.415 1.414l-1.414-1.414-1.414 1.414 1.414 1.415 1.414-1.415zm8.772 8.771v2h4.828l-3.414-3.414-1.414 1.414zm-20.5 0v-2h-2v2h2zM42 22c0 11.046-8.954 20-20 20v4c13.255 0 24-10.745 24-24h-4zM22 2c11.046 0 20 8.954 20 20h4C46 8.745 35.255-2 22-2v4zM2 22C2 10.954 10.954 2 22 2v-4C8.745-2-2 8.745-2 22h4zm20 20C10.954 42 2 33.046 2 22h-4c0 13.255 10.745 24 24 24v-4zm7.195-21.044H8.609v4h20.586v-4zM21.75 33.23l8.858-8.858-2.829-2.829-8.858 8.858 2.829 2.829zm1.414-1.414L21.75 30.4l-2.829 2.829 1.414 1.414 2.829-2.828zm7.693-10.522L20.336 31.815l2.829 2.828 10.522-10.522-2.829-2.828zm.707-.707l-.707.707 2.829 2.828.707-.707-2.829-2.828zm-.707 2.121l.707.707 2.829-2.828-.707-.707-2.829 2.828zM20.336 12.185l10.522 10.522 2.829-2.828L23.165 9.357l-2.829 2.828zm1.415 1.415l1.414-1.415-2.829-2.828-1.414 1.414 2.829 2.829zm8.77 5.942l-8.77-8.77-2.829 2.828 8.771 8.77 2.829-2.828zM8.61 22.956h20.498v-4H8.61v4zm2 0v-2h-4v2h4z" fill="#fff" mask="url(#apa)"/></svg><svg fill="none" viewBox="0 0 44 44" id="education__item__desc__button" xmlns="http://www.w3.org/2000/svg"><path fill-rule="evenodd" clip-rule="evenodd" d="M22 42c11.046 0 20-8.954 20-20S33.046 2 22 2 2 10.954 2 22s8.954 20 20 20zm0 2c12.15 0 22-9.85 22-22S34.15 0 22 0 0 9.85 0 22s9.85 22 22 22zm7.195-21.044H8.609v-2h20.498l-8.77-8.77 1.414-1.415 10.521 10.522.707.707-.707.707L21.751 33.23l-1.415-1.414 8.859-8.859z" fill="#fff"/></svg><svg fill="none" viewBox="0 0 24 24" id="followSoc__item__tg" xmlns="http://www.w3.org/2000/svg"><path fill-rule="evenodd" clip-rule="evenodd" d="M12 24c6.627 0 12-5.373 12-12S18.627 0 12 0 0 5.373 0 12s5.373 12 12 12zm-.125-15.335c-1.164.495-3.49 1.518-6.98 3.07-.567.23-.864.456-.891.676-.046.372.41.518 1.032.718l.262.085c.61.202 1.433.44 1.86.45.388.008.82-.155 1.298-.49 3.26-2.248 4.944-3.383 5.05-3.408.074-.017.178-.039.248.025.07.063.063.183.055.216-.045.196-1.836 1.896-2.762 2.776-.29.274-.494.469-.536.513-.094.1-.19.194-.282.284-.567.56-.993.978.024 1.663.489.329.88.6 1.27.872.426.296.851.592 1.401.96.14.094.274.191.405.286.496.361.941.685 1.492.634.32-.03.65-.338.818-1.254.396-2.164 1.176-6.854 1.356-8.787a2.202 2.202 0 00-.02-.48.52.52 0 00-.17-.332c-.144-.119-.365-.144-.464-.142-.45.008-1.141.253-4.466 1.665z" fill="#004ABA"/></svg><svg fill="none" viewBox="0 0 24 24" id="followSoc__item__ut" xmlns="http://www.w3.org/2000/svg"><path fill-rule="evenodd" clip-rule="evenodd" d="M12 24c6.627 0 12-5.373 12-12S18.627 0 12 0 0 5.373 0 12s5.373 12 12 12zm6.304-16.062c.421.424.558 1.39.558 1.39s.14 1.134.14 2.266v1.06c0 1.136-.14 2.268-.14 2.268s-.137.965-.558 1.389c-.48.502-1.012.554-1.313.584a4.398 4.398 0 00-.09.009c-1.958.14-4.9.145-4.9.145s-3.64-.033-4.76-.14c-.055-.01-.121-.018-.197-.027-.355-.044-.908-.111-1.348-.571-.419-.424-.555-1.39-.555-1.39S5 13.788 5 12.656v-1.061c0-1.132.142-2.267.142-2.267s.134-.965.555-1.389c.48-.503 1.012-.555 1.313-.584l.09-.01c1.958-.142 4.897-.142 4.897-.142h.006s2.94 0 4.897.143l.09.01c.3.028.832.08 1.313.583zm-7.75 2.07v3.935l3.782-1.96-3.781-1.975z" fill="#004ABA"/></svg><svg fill="none" viewBox="0 0 24 24" id="followSoc__item__vk" xmlns="http://www.w3.org/2000/svg"><path fill-rule="evenodd" clip-rule="evenodd" d="M12 24c6.627 0 12-5.373 12-12S18.627 0 12 0 0 5.373 0 12s5.373 12 12 12zm.624-7C7.841 17 5.113 13.622 5 8h2.396c.079 4.126 1.845 5.874 3.244 6.234V8h2.257v3.559c1.381-.154 2.833-1.775 3.322-3.559h2.256c-.376 2.198-1.95 3.82-3.069 4.486 1.12.541 2.912 1.955 3.594 4.514h-2.483c-.534-1.712-1.863-3.036-3.62-3.216V17h-.272z" fill="#004ABA"/></svg><svg fill="none" viewBox="0 0 14 14" id="form-Subtract" xmlns="http://www.w3.org/2000/svg"><path fill-rule="evenodd" clip-rule="evenodd" d="M7 14A7 7 0 107 0a7 7 0 000 14zM6 5V3h2v2H6zm0 6V7h2v4H6z" fill="#739FF3"/></svg><svg fill="none" viewBox="0 0 24 24" id="form-error" xmlns="http://www.w3.org/2000/svg"><path fill-rule="evenodd" clip-rule="evenodd" d="M12 2C6.48 2 2 6.48 2 12s4.48 10 10 10 10-4.48 10-10S17.52 2 12 2zm-1 15v-2h2v2h-2zm0-10v6h2V7h-2z" fill="#E94141"/></svg><svg fill="none" viewBox="0 0 61 60" id="form-icon-err" xmlns="http://www.w3.org/2000/svg"><path d="M21 39.5l19-19M40 39.5l-19-19M30.5 55c13.807 0 25-11.193 25-25S44.307 5 30.5 5s-25 11.193-25 25 11.193 25 25 25z" stroke="#E94141" stroke-width="2.517" stroke-miterlimit="10"/></svg><svg fill="none" viewBox="0 0 61 60" id="form-icon-success" xmlns="http://www.w3.org/2000/svg"><path d="M30.5 55c13.807 0 25-11.193 25-25S44.307 5 30.5 5s-25 11.193-25 25 11.193 25 25 25z" stroke="#A1C63A" stroke-width="2.517" stroke-miterlimit="10"/><path d="M16.016 28.016L28 40l17-17" stroke="#A1C63A" stroke-width="2.517" stroke-miterlimit="10"/></svg><svg fill="none" viewBox="0 0 20 20" id="headerMenuMob--close" xmlns="http://www.w3.org/2000/svg"><path d="M2 18l8-8m8 8l-8-8M2 2l8 8m8-8l-8 8" stroke="#031B4B" stroke-width="1.5" stroke-linecap="square"/></svg><svg fill="none" viewBox="0 0 40 40" id="header__other__search" xmlns="http://www.w3.org/2000/svg"><path fill-rule="evenodd" clip-rule="evenodd" d="M27.274 26.942a11.714 11.714 0 01-8.145 3.273c-6.464 0-11.703-5.197-11.703-11.607C7.426 12.197 12.666 7 19.129 7c6.463 0 11.703 5.197 11.703 11.608 0 2.553-.832 4.914-2.24 6.831l6.505 6.184L33.647 33l-6.373-6.058zm1.558-8.334c0 5.29-4.329 9.607-9.703 9.607-5.375 0-9.703-4.317-9.703-9.607C9.426 13.317 13.755 9 19.129 9s9.703 4.317 9.703 9.608z" fill="#fff"/></svg><svg fill="none" viewBox="0 0 12 12" id="home" xmlns="http://www.w3.org/2000/svg"><mask id="baa" fill="#fff"><path d="M0 4.941L6 0l6 4.941V12H8.25V9.176c0-.561-.237-1.1-.659-1.497A2.323 2.323 0 006 7.06c-.597 0-1.169.223-1.591.62a2.056 2.056 0 00-.659 1.497V12H0V4.941z"/></mask><path d="M6 0l.636-.772a1 1 0 00-1.272 0L6 0zM0 4.941l-.636-.772A1 1 0 00-1 4.941h1zm12 0h1a1 1 0 00-.364-.772L12 4.941zM12 12v1a1 1 0 001-1h-1zm-3.75 0h-1a1 1 0 001 1v-1zm-.659-4.32l.685-.73-.685.73zM3.75 12v1a1 1 0 001-1h-1zM0 12h-1a1 1 0 001 1v-1zM5.364-.772l-6 4.941L.636 5.713l6-4.941L5.364-.772zm7.272 4.941l-6-4.94L5.364.771l6 4.941 1.272-1.544zM11 4.941V12h2V4.941h-2zM12 11H8.25v2H12v-2zm-2.75 1V9.176h-2V12h2zm0-2.824c0-.847-.358-1.646-.974-2.225l-1.37 1.456c.228.215.344.493.344.77h2zm-.974-2.225A3.323 3.323 0 006 6.059v2c.35 0 .675.131.906.348l1.37-1.456zM6 6.059c-.843 0-1.663.314-2.276.892l1.37 1.456c.23-.217.556-.348.906-.348v-2zm-2.276.892a3.056 3.056 0 00-.974 2.225h2c0-.276.116-.554.344-.769l-1.37-1.456zM2.75 9.176V12h2V9.176h-2zm1 1.824H0v2h3.75v-2zM1 12V4.941h-2V12h2z" fill="#004ABA" mask="url(#baa)"/></svg><svg fill="none" viewBox="0 0 14 14" id="home-fill" xmlns="http://www.w3.org/2000/svg"><path d="M1 5.941L7 1l6 4.941V13H9.25v-2.823c0-.562-.237-1.1-.659-1.498A2.323 2.323 0 007 8.06c-.597 0-1.169.223-1.591.62a2.056 2.056 0 00-.659 1.498V13H1V5.941z" fill="#004ABA"/><path d="M1 5.941L7 1l6 4.941V13H9.25v-2.823c0-.562-.237-1.1-.659-1.498A2.323 2.323 0 007 8.06c-.597 0-1.169.223-1.591.62a2.056 2.056 0 00-.659 1.498V13H1V5.941z" stroke="#004ABA" stroke-linecap="round" stroke-linejoin="round"/></svg><svg fill="none" viewBox="0 0 24 17" id="humb" xmlns="http://www.w3.org/2000/svg"><path d="M1 16h22M1 1h22M1 8.5h22" stroke="#fff" stroke-width="2" stroke-linecap="square"/></svg><svg id="icons_84x84px_enroll_01" viewBox="0 0 84 84" xmlns="http://www.w3.org/2000/svg"><defs><style>.bdcls-1{fill:#0047c0}</style></defs><path class="bdcls-1" d="M23.23 19.27h35.53v1H23.23zM23.23 13.81h12.98v1H23.23zM23.23 24.73h35.53v1H23.23zM22.68 52.14H46.5v1H22.68zM22.68 57.55H46.5v1H22.68z"/><path class="bdcls-1" d="M74.05 8.44c-.12-.12-.25-.22-.38-.33a4.46 4.46 0 00-.42-.34h-.07A4.83 4.83 0 0071.43 7a5.81 5.81 0 00-.85-.1H22.72a5.16 5.16 0 00-5.15 5.1v29.48h-10v36h54.04v-9.62h10.84v-42.8h-6.27v-6.35h9.32V12a5.13 5.13 0 00-1.45-3.56zM18.57 12a4.15 4.15 0 014.15-4.16h44.6A5.15 5.15 0 0065.18 12v47.18h-3.57v-17.7H46.73V30.82H22.45v10.66h-3.88zm27.16 29.48H23.45v-9.66h22.28zm14.88 35h-52v-34h13.84v3.05h1v-3.05h22.28v3.05h1v-3.05h13.88zm10.84-50.42v40.8h-9.84v-6.68h4.57V26.06z"/></svg><svg id="icons_84x84px_enroll_02" viewBox="0 0 84 84" xmlns="http://www.w3.org/2000/svg"><defs><style>.becls-1{fill:#0047c0}</style></defs><path class="becls-1" d="M46.5 39v-7.5c0-5.24-5.83-9.5-13-9.5s-13 4.26-13 9.5V39H6v40h7v-7h26.5V55.25H72V79h7V39zm-25-7.5c0-4.69 5.38-8.5 12-8.5s12 3.81 12 8.5V39H40v-5h-1v5H28.57v-5h-1v5H21.5zm17 39.5H13V55.25h25.5zM13 54.25V46h25.5v8.25zm59 0H39.5V46H72zM78 78h-5V45H12v33H7V40h71z"/><path class="becls-1" d="M18 58h15v5H18zM33 20a7 7 0 10-7-7 7 7 0 007 7zm0-13a6 6 0 11-6 6 6 6 0 016-6z"/></svg><svg id="icons_84x84px_enroll_03" viewBox="0 0 84 84" xmlns="http://www.w3.org/2000/svg"><defs><style>.bfcls-1{fill:#0047c0}</style></defs><path class="bfcls-1" d="M14 69h22v1H14zM14 65h22v1H14zM14 61h12.57v1H14zM18 29h41v1H18zM18 25h23.43v1H18zM17.94 13h41v6h-41z"/><path class="bfcls-1" d="M72 39.8V12.5h-6.81V7h-53.5v26.57H7.5V76.5h69V39.8zm-1-26.3v26.3h-5.81V13.5zM12.69 8h51.5v31.8H37.34l-4.53-6.23H12.69zM75.5 75.5h-67V34.57h23.8l4.53 6.23H75.5z"/></svg><svg id="icons_84x84px_enroll_04" viewBox="0 0 84 84" xmlns="http://www.w3.org/2000/svg"><defs><style>.bgcls-1{fill:#0047c0}</style></defs><path class="bgcls-1" d="M71.71 46.38A30.8 30.8 0 1059.5 66.19a12 12 0 0015.62-11.44 11.93 11.93 0 00-3.41-8.37zM39.26 11.71a33.7 33.7 0 00-12.2 14.17H16a29.76 29.76 0 0123.26-14.17zM15.41 26.88h11.21a37.89 37.89 0 00-2.74 14H11.64a29.47 29.47 0 013.77-14zm-3.77 15h12.25a37.75 37.75 0 002.69 14H15.41a29.53 29.53 0 01-3.77-14zm4.35 15H27A32.87 32.87 0 0039 71a29.76 29.76 0 01-23-14.12zM40.88 71A31.74 31.74 0 0128.1 56.88h12.78zm0-15.1H27.66a36.62 36.62 0 01-2.77-14h16zm0-15h-16a36.54 36.54 0 012.84-14h13.16zm0-15H28.17A33.1 33.1 0 0140.66 12l.22-.14zm29.94 19.65a12 12 0 00-12.42-1.83q0-.9.06-1.83h12.65a29.62 29.62 0 01-.29 3.66zm.29-4.67H58.5a37.72 37.72 0 00-2.75-14h11.59a29.47 29.47 0 013.77 14zm-4.35-15H55.32a33.74 33.74 0 00-12.26-14.2 29.76 29.76 0 0123.7 14.2zM41.88 12.09a33.06 33.06 0 0112.33 13.79H41.88zm0 14.79h12.78a36.54 36.54 0 012.84 14H41.88zm0 15h15.61c0 .79-.05 1.57-.1 2.32a12 12 0 00-6.27 10.55c0 .38 0 .75.06 1.13h-9.3zm0 15h9.44a12 12 0 001.14 3.36 31.8 31.8 0 01-10.58 10.52zm16.5 8.89a29.57 29.57 0 01-15.09 5.29A32.92 32.92 0 0053 61.22a12 12 0 005.35 4.55zm5.74-5.27l-.07.09h-1.93v-7.65h2zm0-9.5h-2v-2.5h2z"/></svg><svg id="icons_84x84px_enroll_05" viewBox="0 0 84 84" xmlns="http://www.w3.org/2000/svg"><defs><style>.bhcls-1{fill:#0047c0}</style></defs><path class="bhcls-1" d="M35 19.38h15.44v1H35zM12 51.13h26v1H12zM12 45.75h9.5v1H12zM12 56.5h26v1H12z"/><path class="bhcls-1" d="M78.26 27.75A12 12 0 0074.5 19v-9h-47v23h-22v32.46h7.56v10l17.2-10h15.39V46.85h4.09l17.2 10v-10h7.56V36.46a12 12 0 003.76-8.71zM44.65 64.46H30l-15.94 9.25v-9.25H6.5V34h21v12.85h17.15zM73.5 45.85h-7.56v9.25L50 45.85H28.48V11h45v7.2a12 12 0 00-18.85 6.55H35v1h19.44a12 12 0 00-.18 2 11.55 11.55 0 00.24 2.37H35v1h19.75a12 12 0 002.36 4.38H35v1h23.06a11.95 11.95 0 0015.44.8zM66.87 29.6v.86a.18.18 0 01-.2.2h-1.48c-.13 0-.19-.07-.19-.2v-1a2.22 2.22 0 01.44-1.43 7 7 0 011.29-1.19 7.51 7.51 0 001.2-1.08 1.84 1.84 0 00.4-1.23 1.76 1.76 0 00-.57-1.38 2.44 2.44 0 00-3 0 1.78 1.78 0 00-.58 1.39v.51a.18.18 0 01-.2.19l-1.46-.08a.17.17 0 01-.19-.19v-.37a3.44 3.44 0 01.5-1.87 3.37 3.37 0 011.41-1.28 4.73 4.73 0 012.1-.45 4 4 0 012.81 1 3.29 3.29 0 011.06 2.55 3.46 3.46 0 01-.3 1.45 3.33 3.33 0 01-.69 1 9.33 9.33 0 01-1 .86 7.63 7.63 0 00-1 .87 1.31 1.31 0 00-.35.87zm.25 3.81a1.2 1.2 0 01-1.24 1.24 1.19 1.19 0 01-.88-.35 1.21 1.21 0 01-.35-.89 1.2 1.2 0 011.23-1.23 1.21 1.21 0 01.89.35 1.19 1.19 0 01.35.88z"/></svg><svg id="icons_84x84px_enroll_06" viewBox="0 0 84 84" xmlns="http://www.w3.org/2000/svg"><defs><style>.bicls-1{fill:#0047c0}</style></defs><path class="bicls-1" d="M79 58a12 12 0 00-4-8.93V35H48v-1.13l27-24-.67-.74L48 32.53V30h-2.37l26.2-23.29-.66-.71-27 24H38L11 6l-.67.75L36.54 30H34v2.39L7.83 9.13l-.66.74L34 33.72V35H7v40h68v-8.07A12 12 0 0079 58zm-5-2.37l-7.08 8.08L61.17 58l1.41-1.42 4.25 4.25 6.29-7.2.88.77zM35 31h12v7H35zm39 43H8V36h26v3h14v-3h26v12.27A12 12 0 0058.07 50H42v1h15.27a11.75 11.75 0 00-1.57 3H42v1h13.39a12.33 12.33 0 00-.39 3 12 12 0 0019 9.73z"/><path class="bicls-1" d="M42 46h10.29v1H42zM14.5 67.5h22v-25h-22zm5-1c0-2.48 2.69-4.5 6-4.5s6 2 6 4.5zm-4-23h20v23h-3c0-3-3.14-5.5-7-5.5s-7 2.47-7 5.5h-3z"/><path class="bicls-1" d="M25.5 60a5.5 5.5 0 10-5.5-5.5 5.51 5.51 0 005.5 5.5zm0-10a4.5 4.5 0 11-4.5 4.5 4.51 4.51 0 014.5-4.5z"/></svg><svg id="icons_84x84px_students_01" viewBox="0 0 84 84" xmlns="http://www.w3.org/2000/svg"><defs><style>.bjcls-1{fill:#0047c0}</style></defs><path class="bjcls-1" d="M17.23 63.27H49v1H17.23zM17.23 57.81h11.61v1H17.23zM17.23 68.73H49v1H17.23z"/><path class="bjcls-1" d="M73 32.05V24l7.62-3L42.43 6.09 42.25 6 3.88 21l15.37 6H19l.14 11.74H11V76h44V52.83c6-1.14 10.25-2.86 10.25-4.09V27l6.6-2.57H72v7.6a3.18 3.18 0 00-2.5 3.2v12.13h6V35.25a3.18 3.18 0 00-2.5-3.2zM54 75H12V39.75h7.15l.1 9C19.25 51.4 34 54 42.5 54A68.44 68.44 0 0054 53zm10.26-29.5c-2.49 1.53-11.08 4-21.51 4-11.41 0-21-3-22.54-4.41L20 27.3l22.07 8.61.18.07 22-8.59zm-22-10.59L6.62 21 42.25 7.09 77.88 21l-6.17 2.4L42.56 20l-.12 1 27.29 3.18zM74.5 46.36h-4V35.25a2 2 0 114 0z"/></svg><svg id="icons_84x84px_students_02" viewBox="0 0 84 84" xmlns="http://www.w3.org/2000/svg"><defs><style>.bkcls-1{fill:#0047c0}</style></defs><path class="bkcls-1" d="M74.5 5.5h-52v4h-5v4h-7v66h54v-5h5v-4h5zm-11 73h-52v-64H52V26h11.5zm5-5h-4V25a.45.45 0 00-.13-.35l-11-11a.45.45 0 00-.35-.13H18.5v-3h50zm5-4h-4v-60h-46v-3h50z"/><path class="bkcls-1" d="M41.5 37h14v1h-14zM41.5 33h14v1h-14zM17 64.13h40v1H17zM17 58.75h40v1H17zM17 53.13h40v1H17zM17 47.75h40v1H17zM17 69.5h40v1H17zM41.5 29h8v1h-8zM17 37h14v1H17zM17 33h14v1H17zM17 29h8v1h-8z"/></svg><svg id="icons_84x84px_students_03" viewBox="0 0 84 84" xmlns="http://www.w3.org/2000/svg"><defs><style>.blcls-1{fill:#0047c0}</style></defs><path class="blcls-1" d="M22.72 33.41h38.27v1H22.72zM22.72 38.02h38.27v1H22.72zM22.72 28.8h21.87v1H22.72zM52.35 60h3.5v3h-28v-3h3.5v-1h-8v1h3.5v4h30v-4h3.5v-1h-8v1z"/><path class="blcls-1" d="M76.32 44.32L70 28.4v-7.08h-3.6v-6.91h-5.17V7.5H22.48v6.91H17.3v6.91H14v7.09l-6.61 15.9a.41.41 0 000 .19V76h69V44.5a.52.52 0 00-.07-.18zM23.48 8.5h36.75v5.91H23.48zm-5.18 6.91h47.1v5.91H18.3zM69 22.32V45H56.1v5h-29v-5H15V22.32zM75.35 75h-67V46H26.1v5h31v-5h18.25z"/></svg><svg id="icons_84x84px_students_04" viewBox="0 0 84 84" xmlns="http://www.w3.org/2000/svg"><defs><style>.bmcls-1{fill:#0047c0}</style></defs><path class="bmcls-1" d="M63.52 31.79l6.68-13.22-7.53-3.8L56 28zm-.41-15.68L68.86 19l-5.78 11.44-5.75-2.9z"/><path class="bmcls-1" d="M77 51h-2.12V40.63 32.26a2.51 2.51 0 00-2.5-2.5h-.69l4.08-8.09a4.4 4.4 0 00.23-3.43 4.47 4.47 0 00-2.24-2.62l-15-7.55-.76-.48-7.41-3.69a4.5 4.5 0 00-6.05 2L32.48 29.76H11a2.5 2.5 0 00-2.5 2.5V73a4.51 4.51 0 004.5 4.5h57.38a4.51 4.51 0 004.5-4.5V62.63H77zM58.39 9l15 7.56a3.5 3.5 0 011.54 4.7l-7.58 14.87H44.66zm-.89-.45l-14 27.62h-4.79l14.94-29.6zM45.44 6.34a3.47 3.47 0 013.12-1.92 3.52 3.52 0 011.58.37l2.62 1.33-15.17 30h-7.21zM73.88 73a3.51 3.51 0 01-3.5 3.5H13A3.5 3.5 0 019.51 73V40.63a3.5 3.5 0 013.5-3.5h57.37a3.51 3.51 0 013.5 3.5V51h-4.94a2.51 2.51 0 00-2.5 2.5v6.63a2.5 2.5 0 002.5 2.5h4.94zM76 61.63h-7.06a1.5 1.5 0 01-1.5-1.5V53.5a1.5 1.5 0 011.5-1.5H76z"/></svg><svg id="icons_84x84px_students_05" viewBox="0 0 84 84" xmlns="http://www.w3.org/2000/svg"><defs><style>.bncls-1{fill:#0047c0}</style></defs><path class="bncls-1" d="M45.54 24.53H32.48v5h13.06zm-1 4H33.48v-3h11.06zM45.54 34.44H32.48v5h13.06zm-1 4H33.48v-3h11.06zM15.77 29.49h13.07v-5H15.77zm1-4h11.07v3H16.77zM15.77 39.41h13.07v-5H15.77zm1-4h11.07v3H16.77zM15.77 49.32h13.07v-5H15.77zm1-4h11.07v3H16.77zM15.77 59.23h13.07v-5H15.77zm1-4h11.07v3H16.77zM15.77 69.15h13.07v-5H15.77zm1-4h11.07v3H16.77z"/><path class="bncls-1" d="M53.43 46.46V18h-3.71V9.52H40l-9.3-5.13-9.35 5.13H11.6V18H7.88v59.5h68.55V53H78v-6.54zM12.6 10.52h9l9.05-5 9.05 5h9V18H12.6zm-3.72 66V19h43.55v27.46h-6.89v-2.11H32.48v5h5.1V53h1.7v1.27h-6.8v5h6.8v5h-6.8v5h6.8v7.23zm30.4-18.27h-5.8v-3h5.8zm0 9.92h-5.8v-3h5.8zm5.26-21.69h-7v1.86h-4.1v-3h11.1zm21.32 30h-16v-12h16zm9.57 0h-8.57v-13h-18v13h-8.58V53h35.15z"/></svg><svg id="icons_84x84px_students_06" viewBox="0 0 84 84" xmlns="http://www.w3.org/2000/svg"><defs><style>.bocls-1{fill:#0047c0}</style></defs><path class="bocls-1" d="M39.56 31.1H54.5v1H39.56zM39.56 26.83H54.5v1H39.56zM13.4 54.32H41v1H13.4zM39.56 22.56h8.54v1h-8.54zM36.32 13.49H12.9V39h23.42zM32.5 38h-16v-2.2c0-3.1 3.59-5.62 8-5.62s8 2.52 8 5.62zm2.82 0H33.5v-2.2c0-3.65-4-6.62-9-6.62s-9 3-9 6.62V38h-1.6V14.49h21.42zM12.9 42.49h23.42V49H12.9zM44.8 54.09A13.3 13.3 0 1058.09 40.8 13.29 13.29 0 0044.8 54.09zm25.59 0a12.3 12.3 0 11-12.3-12.29 12.32 12.32 0 0112.3 12.29z"/><path class="bocls-1" d="M78.61 71l-6.75-6.8A17.06 17.06 0 0065 38.46V7H7v70h58v-7.28a16.26 16.26 0 002.46-1.34l6.86 6.87A3 3 0 0078.61 71zm-4.42-16.91A16.1 16.1 0 1158.09 38a16.12 16.12 0 0116.1 16.09zM64 76H8V8h56v30.07a17.05 17.05 0 00-21.91 22H13.4v1h29.09a17.15 17.15 0 003.16 4.74H13.4v1h33.28A17 17 0 0064 70.12zm13.9-1.46a2 2 0 01-2.87 0l-6.74-6.75a17.33 17.33 0 003-2.78l6.65 6.65a2 2 0 01-.04 2.88z"/><path class="bocls-1" d="M24.16 28.14a4.92 4.92 0 10-4.92-4.92 4.93 4.93 0 004.92 4.92zm0-8.84a3.92 3.92 0 11-3.92 3.92 3.93 3.93 0 013.92-3.92z"/></svg><svg fill="none" viewBox="0 0 40 52" id="logo" xmlns="http://www.w3.org/2000/svg"><path fill-rule="evenodd" clip-rule="evenodd" d="M20.4 2.4h-.2c-.2-.1-.3-.1-.4-.2l.6-.4.6.4c-.1.1-.3.1-.4.2h-.2zM19.2.9c0 .1-.1.8.5 1.2l.2-.7-.7-.5zm2.4 0l-.7.5.2.7c.5-.4.5-1 .5-1.2zm.9 16.6c0-.9-.5-1.6-1.2-1.9l-.1-.1c-.3-.1-.3-.5-.3-.5l.6-1.5c-.1-.4-.5-.5-.5-.5v-.4s.4-.5.3-1.2c0-.1-.5-7.2-.6-8 .2-.1.3-.3.3-.5v-.2c1.5-.8.8-2.2.5-2.4l-.1.1c.1 0 .2.2.3.4h-.9l-.4-.8-.3.9h-.9c.1-.2.2-.4.3-.4l-.1-.1c-.3.2-1.1 1.5.5 2.4V3c0 .2.1.4.3.5-.1.7-.6 7.9-.6 8-.1.7.2 1.2.2 1.2v.3s-.4.1-.5.5l.6 1.5s0 .4-.3.5c-.8.3-1.4 1.1-1.4 2v1.7h-.9v2.7h6.1v-2.7h-.9v-1.7zm-.8 29.1h1V23h-1v23.6zm16.5-14.1V50c.6.2 1.2.5 1.8.8V32.5h-1.8zm-3.5 0H32V48c1.8.5 3.6 1 5.3 1.7V30.9h-2.6v1.6zM26.9 47c1.4.2 2.7.4 4 .7v-9.4h-4V47zm-3.3-.3c.8.1 1.5.1 2.3.2V23h-2.3v23.7zM5.4 30.9H2.7v19c1.7-.7 3.5-1.3 5.3-1.7V32.5H5.4v-1.6zm3.7 17c1.4-.3 2.8-.6 4.3-.8v-8.8H9.1v9.6zM0 51.1c.6-.3 1.2-.6 1.8-.8V32.5H0v18.6zm19.9-4.6h1V23h-1v23.5zm-5.4-9.3v9.7c.9-.1 1.7-.2 2.6-.3V23h-2.6v14.2zm3.5 9.4h1V23h-1v23.6z" fill="#fff"/></svg><svg fill="none" viewBox="0 0 30 34" id="map-icon--1" xmlns="http://www.w3.org/2000/svg"><path d="M29.252 22.247l-.498-1.931-4.073 1.091-2.326-1.343 2.16-.587-.498-1.931-4.072 1.091-2.909-1.679 2.909-1.679 4.072 1.091.498-1.93-2.16-.588 2.326-1.343 4.072 1.091.5-1.93-2.162-.588L30 9.402l-.997-1.679-2.909 1.68.582-2.183-1.911-.504-1.08 4.114-2.328 1.343.582-2.183-1.911-.504-1.08 4.114-2.91 1.679v-3.526l2.992-3.022-1.412-1.427-1.58 1.595V6.212L19.03 3.19l-1.412-1.427-1.58 1.595V0h-1.994v3.442l-1.579-1.595-1.412 1.427 2.991 3.022v2.77l-1.579-1.594-1.412 1.427 2.991 3.022v3.442l-2.908-1.68L9.972 9.32l-1.911.503.582 2.183-2.327-1.343-1.08-4.114-1.912.504.582 2.183-2.909-1.68L0 9.236l2.909 1.679-2.161.587.499 1.931 4.072-1.091 2.326 1.343-2.16.588.498 1.93 4.072-1.09 2.909 1.678-2.909 1.68-4.072-1.092-.498 1.93 2.16.588L5.32 21.24l-4.072-1.09-.5 1.93 2.162.588L0 24.346l.997 1.679 2.909-1.68-.582 2.351 1.911.504 1.08-4.114 2.328-1.343-.582 2.183 1.911.504 1.08-4.114 2.91-1.679v3.442l-2.992 3.022 1.412 1.427 1.58-1.595v2.77l-2.992 3.023 1.412 1.427 1.58-1.595V34h1.994v-3.442l1.579 1.595 1.412-1.427-2.991-3.022v-2.77l1.579 1.594 1.412-1.427-2.991-3.022v-3.442l2.908 1.679 1.08 4.114 1.912-.504-.582-2.183 2.327 1.343 1.08 4.114 1.912-.504-.582-2.182 2.909 1.679.997-1.68-2.909-1.678 2.244-.588z" fill="#004ABA"/></svg><svg fill="none" viewBox="0 0 36 36" id="map-icon--2" xmlns="http://www.w3.org/2000/svg"><path d="M33.144 7.559h-1.212a5.518 5.518 0 00-6.23-4.5c-2.596.433-4.587 2.683-4.587 5.365a7.94 7.94 0 007.962 7.962h2.942V9.29h1.125c.519 0 .865-.433.865-.866 0-.432-.433-.865-.865-.865zm-5.02 1.211a.867.867 0 01-.865-.865c0-.433.433-.865.866-.865.519 0 .865.432.865.865 0 .52-.433.865-.865.865zM25.269 17.338c-.086.865-.346 1.644-.606 2.423-1.47 3.72-4.76 6.317-8.74 6.923l-1.99.346c1.385.865 2.942 1.47 4.586 1.817l.78 2.423h-.26a.867.867 0 00-.866.865c0 .52.433.866.866.866h8.047c.52 0 .866-.433.866-.866a.867.867 0 00-.866-.865h-1.903l-.952-2.942c4.413-1.558 7.442-5.538 7.788-10.211h-2.856a9.78 9.78 0 01-3.894-.78zm-4.067 13.845l-.779-2.25c.692 0 1.385-.086 2.077-.172l.865 2.51h-2.163v-.088z" fill="#004ABA"/><path d="M23.019 19.068c.346-.866.52-1.73.606-2.683-1.818-1.211-3.116-2.942-3.808-5.019a16.809 16.809 0 01-8.307 7.183l-6.058 2.423c-2.077.865-3.461 2.855-3.461 5.105 0 .52.433.865.865.865h.173l12.634-1.99c3.289-.519 6.144-2.769 7.356-5.884z" fill="#004ABA"/></svg><svg fill="none" viewBox="0 0 22 32" id="map-icon--3" xmlns="http://www.w3.org/2000/svg"><path d="M21.212 25.541l-5.217-14.406V2.461h1.521V.5H4.4v1.961h1.522v8.674L.776 25.541c-.507 1.358-.29 2.866.435 4.073A4.153 4.153 0 004.69 31.5h12.464a4.153 4.153 0 003.478-1.886c.942-1.207 1.087-2.715.58-4.073zm-15-9.654l1.594-4.375V9.023h2.319V6.987h-2.32V5.478h2.32V3.517h-2.32V2.461h6.378v9.051l1.594 4.375H6.211z" fill="#004ABA"/></svg><svg fill="none" viewBox="0 0 22 28" id="map-icon--4" xmlns="http://www.w3.org/2000/svg"><path d="M12.2.955c-.8-1.273-1.6-1.273-2.4 0C6.28 6.205.92 14.079.92 17.977c0 2.784 1.12 5.25 2.96 7.08C5.72 26.887 8.2 28 11 28s5.28-1.114 7.12-2.943c1.84-1.83 2.96-4.296 2.96-7.08C21.08 14 15.72 6.205 12.2.955zm6.08 21.477a8.284 8.284 0 01-3.04 2.943c-.56.318-1.28.16-1.6-.477-.4-.637-.16-1.352.48-1.67.88-.478 1.6-1.194 2.16-2.069s.88-1.83.88-2.863c.08-.716.56-1.194 1.28-1.114.72.08 1.2.557 1.12 1.273-.08 1.431-.56 2.784-1.28 3.977z" fill="#004ABA"/></svg><svg fill="none" viewBox="0 0 30 22" id="map-icon--5" xmlns="http://www.w3.org/2000/svg"><path d="M15.119 9.174V5.521h-1.665l.079-3.572H9.964l-.08 3.572H6.396l.08-3.572H2.906l-.08 3.572H.766v3.653h1.903l-.159 3.653H.765v3.654H2.43l-.08 3.49h3.57l.079-3.572h3.569l-.08 3.572h3.569l.08-3.572h2.061v-3.653h-1.903l.159-3.653h1.665v.081zm-5.472 3.653h-3.49l.16-3.653h3.568l-.238 3.653zM26.46 18.347V0h-6.424v3.653h2.855v14.694h-2.855V22h9.2v-3.653H26.46z" fill="#004ABA"/></svg><svg fill="none" viewBox="0 0 36 36" id="map-icon--6" xmlns="http://www.w3.org/2000/svg"><path d="M24.43 13.657c-.529-2.47-2.91-5.027-6.35-5.291-3.35-.265-6.437 1.852-7.496 5.027-.97 3.086.353 6.173 2.205 7.496.088-.088.088-.177.177-.265.529-.705.97-1.499 1.499-2.205.617-.793 1.41-1.146 2.38-1.058.265 0 .442-.088.53-.264.794-1.147 1.587-2.382 2.381-3.528.794-1.147 2.029-1.588 3.263-1.147.618.265 1.059.706 1.411 1.235zM18.433 3.78V2.016c0-.617-.352-.97-.882-.97-.529 0-.881.44-.881.97v3.528c0 .617.352.97.881.97.53 0 .882-.441.882-.97V3.78zm-12.7 11.817h1.765c.617 0 1.058-.352 1.058-.882 0-.529-.441-.881-.97-.881h-3.44c-.617 0-1.058.352-1.058.881 0 .53.441.882 1.058.882h1.588zm5.645-8.113c0-.088-.088-.353-.264-.53l-2.47-2.469a.953.953 0 00-.617-.264c-.353-.088-.706.176-.882.44-.176.353-.176.706.176 1.059.618.617 1.235 1.235 1.764 1.852.265.265.53.53.794.706.264.264.617.264.97.176.353-.176.529-.441.529-.97zm13.317 1.058c.088-.088.353-.176.617-.353l2.381-2.38.088-.089a.853.853 0 000-1.235.853.853 0 00-1.234 0l-1.852 1.852-.794.794c-.264.265-.264.617-.088.97.088.265.353.441.882.441zm4.586 7.055h1.675c.618 0 1.059-.352 1.059-.882 0-.529-.441-.881-.97-.881h-3.44c-.617 0-1.058.352-1.058.881 0 .53.44.882 1.058.882h1.676zM3.706 31.912l-.089-.088c-.617-.353-.705-.882-.352-1.41.44-.53.793-1.06 1.234-1.676 1.323-1.852 2.734-3.616 4.057-5.468.176-.177.353-.353.53-.441.352-.177.793-.088 1.057.353.53.705 1.059 1.41 1.588 2.028.088.088.088.176.176.264.088-.088.177-.176.177-.264l3.704-5.556c.352-.441.793-.706 1.234-.441.177.088.353.265.53.53 2.204 3.35 4.41 6.613 6.614 9.965.44.705.97 1.41 1.41 2.204H3.707z" fill="#004ABA"/><path d="M27.693 31.913c-2.645-3.969-5.291-8.026-7.937-11.994-.264-.441-.529-.882-.882-1.235-.176-.176-.176-.353 0-.53.794-1.146 1.5-2.292 2.293-3.439.53-.793 1.235-.793 1.764 0 3.087 4.586 6.173 9.084 9.348 13.67.441.617.794 1.146 1.235 1.764.176.264.264.44.44.705v.441l-.705.706c-1.852-.088-3.704-.088-5.556-.088z" fill="#004ABA"/><path d="M24.43 13.657c-.353-.529-.794-.97-1.411-1.146-1.235-.441-2.557 0-3.263 1.146-.794 1.147-1.587 2.381-2.381 3.528-.177.176-.265.264-.53.264-.97-.088-1.763.265-2.38 1.059-.53.705-.97 1.499-1.5 2.204-.088.089-.088.177-.176.265-1.764-1.411-3.087-4.41-2.205-7.496.97-3.175 4.057-5.292 7.408-5.115 3.528.264 5.909 2.822 6.438 5.291zM18.433 3.78v1.676c0 .617-.353.97-.882.97s-.882-.441-.882-.97V1.928c0-.617.353-.97.882-.97.53 0 .882.441.882.97V3.78zM5.734 15.597H4.058c-.617 0-1.058-.353-1.058-.882 0-.53.44-.882 1.058-.882h3.44c.617 0 .97.353.97.882 0 .53-.441.882-1.058.882H5.734zM11.378 7.484c0 .529-.176.793-.53.97-.352.176-.616.088-.97-.177-.264-.176-.528-.44-.793-.705-.617-.617-1.146-1.235-1.764-1.852-.352-.353-.352-.706-.176-1.058.176-.353.53-.53.882-.441.176 0 .44.176.617.264l2.47 2.47c.176.176.264.44.264.529zM24.695 8.541c-.53 0-.794-.176-.97-.529-.177-.353-.088-.705.088-.97l.794-.794 1.852-1.852a.853.853 0 011.234 0 .853.853 0 010 1.235l-.088.088L25.224 8.1c-.088.265-.353.353-.53.441zM29.28 15.597h-1.675c-.617 0-1.058-.353-1.058-.882 0-.53.44-.882 1.058-.882h3.44c.617 0 .97.353.97.882 0 .53-.441.882-1.059.882h-1.675z" fill="#004ABA"/></svg><svg fill="none" viewBox="0 0 8 16" id="menu-sideb-arrrow" xmlns="http://www.w3.org/2000/svg"><path d="M1 1l6 7-6 7" stroke="#031B4B"/></svg><svg fill="none" viewBox="0 0 11 18" id="pagination__arrow" xmlns="http://www.w3.org/2000/svg"><path d="M1 17l8-7.908L1 1" stroke="#004ABA" stroke-width="1.5"/></svg><svg fill="none" viewBox="0 0 18 16" id="search--delete" xmlns="http://www.w3.org/2000/svg"><path fill-rule="evenodd" clip-rule="evenodd" d="M8.308 8.361L1.69 15.28l.692.722L9 9.084 15.619 16l.691-.722L9.691 8.36l7.31-7.64-.69-.722L9 7.639 1.69-.001.997.722l7.31 7.64z" fill="#073478" fill-opacity=".3"/></svg><svg fill="none" viewBox="0 0 18 16" id="search--delete-2" xmlns="http://www.w3.org/2000/svg"><path fill-rule="evenodd" clip-rule="evenodd" d="M8.308 8.361L1.69 15.28l.692.722L9 9.084 15.619 16l.691-.722L9.691 8.36l7.31-7.64-.69-.722L9 7.639 1.69-.001.997.722l7.31 7.64z" fill="#D9D9D9"/><path fill-rule="evenodd" clip-rule="evenodd" d="M8.308 8.361L1.69 15.28l.692.722L9 9.084 15.619 16l.691-.722L9.691 8.36l7.31-7.64-.69-.722L9 7.639 1.69-.001.997.722l7.31 7.64z" fill="#031B4B"/></svg><svg fill="none" viewBox="0 0 24 24" id="search--filter" xmlns="http://www.w3.org/2000/svg"><path stroke="#fff" stroke-width="2" d="M4 8h16"/><circle cx="15" cy="8" r="1.5" fill="#fff" stroke="#fff"/><path stroke="#fff" stroke-width="2" d="M4 16h16"/><circle cx="9" cy="16" r="1.5" fill="#fff" stroke="#fff"/></svg><svg fill="none" viewBox="0 0 13 10" id="search--shape" xmlns="http://www.w3.org/2000/svg"><path d="M11 2L4.7 9 2 6" stroke="#fff" stroke-width="2" stroke-linecap="square" stroke-linejoin="round"/></svg><svg fill="none" viewBox="0 0 24 22" id="search-play" xmlns="http://www.w3.org/2000/svg"><path fill-rule="evenodd" clip-rule="evenodd" d="M16.82 16.554a9.371 9.371 0 01-6.516 2.618c-5.17 0-9.363-4.158-9.363-9.286C.941 4.757 5.133.6 10.304.6c5.17 0 9.362 4.157 9.362 9.286a9.194 9.194 0 01-1.792 5.465l5.204 4.947-1.16 1.102-5.098-4.846zm1.246-6.668c0 4.232-3.463 7.686-7.762 7.686-4.3 0-7.763-3.454-7.763-7.686 0-4.233 3.463-7.686 7.763-7.686s7.762 3.453 7.762 7.686z" fill="#031B4B"/></svg><svg fill="none" viewBox="0 0 14 8" id="select2-selection__arrow" xmlns="http://www.w3.org/2000/svg"><path d="M1 1l5.931 6L13 1" stroke="#031B4B"/></svg><svg fill="none" viewBox="0 0 11 18" id="seminars__next" xmlns="http://www.w3.org/2000/svg"><path d="M1.5 17l8-7.908L1.5 1" stroke="#004ABA" stroke-width="1.5"/></svg><svg fill="none" viewBox="0 0 17 24" id="seminars__prev" xmlns="http://www.w3.org/2000/svg"><path d="M12.5 4l-8 7.908 8 8.092" stroke="#004ABA" stroke-width="1.5"/></svg><svg fill="none" viewBox="0 0 52 68" id="shape" xmlns="http://www.w3.org/2000/svg"><path d="M11.714 37.667h21.429M11.714 52.333h28.572M29.57 1H1v66h50V23M29.571 1h3.572L51 19.333V23M29.571 1v14.667c0 3.666 3.572 7.333 7.143 7.333H51" stroke="#004ABA" stroke-linecap="square"/></svg><svg fill="none" viewBox="0 0 24 24" id="tg" xmlns="http://www.w3.org/2000/svg"><path fill-rule="evenodd" clip-rule="evenodd" d="M12 24c6.627 0 12-5.373 12-12S18.627 0 12 0 0 5.373 0 12s5.373 12 12 12zm-.125-15.335c-1.164.495-3.49 1.518-6.98 3.07-.567.23-.864.456-.891.676-.046.372.41.518 1.032.718l.262.085c.61.202 1.433.44 1.86.45.388.008.82-.155 1.298-.49 3.26-2.248 4.944-3.383 5.05-3.408.074-.017.178-.039.248.025.07.063.063.183.055.216-.045.196-1.836 1.896-2.762 2.776-.29.274-.494.469-.536.513-.094.1-.19.194-.282.284-.567.56-.993.978.024 1.663.489.329.88.6 1.27.872.426.296.851.592 1.401.96.14.094.274.191.405.286.496.361.941.685 1.492.634.32-.03.65-.338.818-1.254.396-2.164 1.176-6.854 1.356-8.787a2.202 2.202 0 00-.02-.48.52.52 0 00-.17-.332c-.144-.119-.365-.144-.464-.142-.45.008-1.141.253-4.466 1.665z" fill="#fff"/></svg><svg fill="none" viewBox="0 0 28 28" id="topMenu__overlay--close" xmlns="http://www.w3.org/2000/svg"><path d="M4 24l10-9.885L4 4M24 4l-10 9.885L24 24" stroke="#031B4B"/></svg><svg fill="none" viewBox="0 0 24 24" id="vk" xmlns="http://www.w3.org/2000/svg"><path fill-rule="evenodd" clip-rule="evenodd" d="M12 24c6.627 0 12-5.373 12-12S18.627 0 12 0 0 5.373 0 12s5.373 12 12 12zm.624-7C7.841 17 5.113 13.622 5 8h2.396c.079 4.126 1.845 5.874 3.244 6.234V8h2.257v3.559c1.381-.154 2.833-1.775 3.322-3.559h2.256c-.376 2.198-1.95 3.82-3.069 4.486 1.12.541 2.912 1.955 3.594 4.514h-2.483c-.534-1.712-1.863-3.036-3.62-3.216V17h-.272z" fill="#fff"/></svg><svg fill="none" viewBox="0 0 24 24" id="youtube" xmlns="http://www.w3.org/2000/svg"><path fill-rule="evenodd" clip-rule="evenodd" d="M12 24c6.627 0 12-5.373 12-12S18.627 0 12 0 0 5.373 0 12s5.373 12 12 12zm6.304-16.062c.421.424.558 1.39.558 1.39s.14 1.134.14 2.266v1.06c0 1.136-.14 2.268-.14 2.268s-.137.965-.558 1.389c-.48.502-1.012.554-1.313.584a4.398 4.398 0 00-.09.009c-1.958.14-4.9.145-4.9.145s-3.64-.033-4.76-.14c-.055-.01-.121-.018-.197-.027-.355-.044-.908-.111-1.348-.571-.419-.424-.555-1.39-.555-1.39S5 13.788 5 12.656v-1.061c0-1.132.142-2.267.142-2.267s.134-.965.555-1.389c.48-.503 1.012-.555 1.313-.584l.09-.01c1.958-.142 4.897-.142 4.897-.142h.006s2.94 0 4.897.143l.09.01c.3.028.832.08 1.313.583zm-7.75 2.07v3.935l3.782-1.96-3.781-1.975z" fill="#fff"/></svg></svg>